<?xml version="1.0" encoding="utf-8" standalone="no"?>
<!DOCTYPE svg PUBLIC "-//W3C//DTD SVG 1.1//EN"
  "http://www.w3.org/Graphics/SVG/1.1/DTD/svg11.dtd">
<svg xmlns:xlink="http://www.w3.org/1999/xlink" width="515.52pt" height="246.24pt" viewBox="0 0 515.52 246.24" xmlns="http://www.w3.org/2000/svg" version="1.1">
 <metadata>
  <rdf:RDF xmlns:dc="http://purl.org/dc/elements/1.1/" xmlns:cc="http://creativecommons.org/ns#" xmlns:rdf="http://www.w3.org/1999/02/22-rdf-syntax-ns#">
   <cc:Work>
    <dc:type rdf:resource="http://purl.org/dc/dcmitype/StillImage"/>
    <dc:date>2026-07-11T08:50:54.314320</dc:date>
    <dc:format>image/svg+xml</dc:format>
    <dc:creator>
     <cc:Agent>
      <dc:title>Matplotlib v3.10.7, https://matplotlib.org/</dc:title>
     </cc:Agent>
    </dc:creator>
   </cc:Work>
  </rdf:RDF>
 </metadata>
 <defs>
  <style type="text/css">*{stroke-linejoin: round; stroke-linecap: butt}</style>
 </defs>
 <g id="figure_1">
  <g id="patch_1">
   <path d="M 0 246.24 
L 515.52 246.24 
L 515.52 0 
L 0 0 
z
" style="fill: #ffffff"/>
  </g>
  <g id="axes_1">
   <g id="patch_2">
    <path d="M 5.76 198.72 
L 253.44 198.72 
Q 257.04 198.72 257.04 195.12 
L 257.04 5.76 
Q 257.04 2.16 253.44 2.16 
L 5.76 2.16 
Q 2.16 2.16 2.16 5.76 
L 2.16 195.12 
Q 2.16 198.72 5.76 198.72 
z
" clip-path="url(#pd1e98d9574)" style="fill: #f6f8fa; stroke: #c8d0d8; stroke-width: 0.8; stroke-linejoin: miter"/>
   </g>
   <g id="patch_3">
    <path d="M 308.16 198.72 
L 509.76 198.72 
Q 513.36 198.72 513.36 195.12 
L 513.36 5.76 
Q 513.36 2.16 509.76 2.16 
L 308.16 2.16 
Q 304.56 2.16 304.56 5.76 
L 304.56 195.12 
Q 304.56 198.72 308.16 198.72 
z
" clip-path="url(#pd1e98d9574)" style="fill: #f6f8fa; stroke: #c8d0d8; stroke-width: 0.8; stroke-linejoin: miter"/>
   </g>
   <g id="patch_4">
    <path d="M 110.16 44.64 
Q 113.76 44.64 116.130163 44.64 
" clip-path="url(#pd1e98d9574)" style="fill: none; stroke: #2a3340; stroke-width: 1.1; stroke-linecap: round"/>
    <path d="M 112.530163 42.84 
L 116.130163 44.64 
L 112.530163 46.44 
z
" clip-path="url(#pd1e98d9574)" style="fill: #2a3340; stroke: #2a3340; stroke-width: 1.1; stroke-linecap: round"/>
   </g>
   <g id="patch_5">
    <path d="M 186.48 44.64 
Q 190.08 44.64 192.450163 44.64 
" clip-path="url(#pd1e98d9574)" style="fill: none; stroke: #2a3340; stroke-width: 1.1; stroke-linecap: round"/>
    <path d="M 188.850163 42.84 
L 192.450163 44.64 
L 188.850163 46.44 
z
" clip-path="url(#pd1e98d9574)" style="fill: #2a3340; stroke: #2a3340; stroke-width: 1.1; stroke-linecap: round"/>
   </g>
   <g id="patch_6">
    <path d="M 186.48 168.48 
Q 190.08 168.48 192.450163 168.48 
" clip-path="url(#pd1e98d9574)" style="fill: none; stroke: #2a3340; stroke-width: 1.1; stroke-linecap: round"/>
    <path d="M 188.850163 166.68 
L 192.450163 168.48 
L 188.850163 170.28 
z
" clip-path="url(#pd1e98d9574)" style="fill: #2a3340; stroke: #2a3340; stroke-width: 1.1; stroke-linecap: round"/>
   </g>
   <g id="patch_7">
    <path d="M 27.72 92.88 
Q 27.72 68.76 27.72 44.64 
" clip-path="url(#pd1e98d9574)" style="fill: none; stroke: #2a3340; stroke-width: 1.1; stroke-linecap: round"/>
   </g>
   <g id="patch_8">
    <path d="M 27.72 44.64 
Q 40.14 44.64 51.330163 44.64 
" clip-path="url(#pd1e98d9574)" style="fill: none; stroke: #2a3340; stroke-width: 1.1; stroke-linecap: round"/>
    <path d="M 47.730163 42.84 
L 51.330163 44.64 
L 47.730163 46.44 
z
" clip-path="url(#pd1e98d9574)" style="fill: #2a3340; stroke: #2a3340; stroke-width: 1.1; stroke-linecap: round"/>
   </g>
   <g id="patch_9">
    <path d="M 27.72 127.44 
Q 27.72 147.96 27.72 168.48 
" clip-path="url(#pd1e98d9574)" style="fill: none; stroke: #2a3340; stroke-width: 1.1; stroke-linecap: round"/>
   </g>
   <g id="patch_10">
    <path d="M 27.72 168.48 
Q 72.54 168.48 116.130163 168.48 
" clip-path="url(#pd1e98d9574)" style="fill: none; stroke: #2a3340; stroke-width: 1.1; stroke-linecap: round"/>
    <path d="M 112.530163 166.68 
L 116.130163 168.48 
L 112.530163 170.28 
z
" clip-path="url(#pd1e98d9574)" style="fill: #2a3340; stroke: #2a3340; stroke-width: 1.1; stroke-linecap: round"/>
   </g>
   <g id="patch_11">
    <path d="M 407.52 44.64 
Q 418.68 44.64 429.84 44.64 
" clip-path="url(#pd1e98d9574)" style="fill: none; stroke: #9aa7b4; stroke-width: 1.3; stroke-linecap: round"/>
   </g>
   <g id="patch_12">
    <path d="M 429.84 44.64 
Q 429.84 72.72 429.84 100.8 
" clip-path="url(#pd1e98d9574)" style="fill: none; stroke: #9aa7b4; stroke-width: 1.3; stroke-linecap: round"/>
   </g>
   <g id="patch_13">
    <path d="M 429.84 100.8 
Q 439.56 100.8 447.826556 100.8 
" clip-path="url(#pd1e98d9574)" style="fill: none; stroke: #9aa7b4; stroke-width: 1.3; stroke-linecap: round"/>
    <path d="M 444.226556 99 
L 447.826556 100.8 
L 444.226556 102.6 
z
" clip-path="url(#pd1e98d9574)" style="fill: #9aa7b4; stroke: #9aa7b4; stroke-width: 1.3; stroke-linecap: round"/>
   </g>
   <g id="patch_14">
    <path d="M 407.52 168.48 
Q 418.68 168.48 429.84 168.48 
" clip-path="url(#pd1e98d9574)" style="fill: none; stroke: #ffb454; stroke-width: 1.3; stroke-linecap: round"/>
   </g>
   <g id="patch_15">
    <path d="M 429.84 168.48 
Q 429.84 143.28 429.84 118.08 
" clip-path="url(#pd1e98d9574)" style="fill: none; stroke: #ffb454; stroke-width: 1.3; stroke-linecap: round"/>
   </g>
   <g id="patch_16">
    <path d="M 429.84 118.08 
Q 439.56 118.08 447.826556 118.08 
" clip-path="url(#pd1e98d9574)" style="fill: none; stroke: #ffb454; stroke-width: 1.3; stroke-linecap: round"/>
    <path d="M 444.226556 116.28 
L 447.826556 118.08 
L 444.226556 119.88 
z
" clip-path="url(#pd1e98d9574)" style="fill: #ffb454; stroke: #ffb454; stroke-width: 1.3; stroke-linecap: round"/>
   </g>
   <g id="patch_17">
    <path d="M 12.24 128.88 
L 43.2 128.88 
Q 46.8 128.88 46.8 125.28 
L 46.8 95.04 
Q 46.8 91.44 43.2 91.44 
L 12.24 91.44 
Q 8.64 91.44 8.64 95.04 
L 8.64 125.28 
Q 8.64 128.88 12.24 128.88 
z
" clip-path="url(#pd1e98d9574)" style="fill: #ffffff; stroke: #2a3340; stroke-width: 0.9; stroke-linejoin: miter"/>
   </g>
   <g id="patch_18">
    <path d="M 54.72 63.36 
L 108 63.36 
Q 111.6 63.36 111.6 59.76 
L 111.6 29.52 
Q 111.6 25.92 108 25.92 
L 54.72 25.92 
Q 51.12 25.92 51.12 29.52 
L 51.12 59.76 
Q 51.12 63.36 54.72 63.36 
z
" clip-path="url(#pd1e98d9574)" style="fill: #edf0f3; stroke: #9aa7b4; stroke-linejoin: miter"/>
   </g>
   <g id="patch_19">
    <path d="M 119.52 63.36 
L 184.32 63.36 
Q 187.92 63.36 187.92 59.76 
L 187.92 29.52 
Q 187.92 25.92 184.32 25.92 
L 119.52 25.92 
Q 115.92 25.92 115.92 29.52 
L 115.92 59.76 
Q 115.92 63.36 119.52 63.36 
z
" clip-path="url(#pd1e98d9574)" style="fill: #edf0f3; stroke: #9aa7b4; stroke-linejoin: miter"/>
   </g>
   <g id="patch_20">
    <path d="M 195.84 63.36 
L 247.68 63.36 
Q 251.28 63.36 251.28 59.76 
L 251.28 29.52 
Q 251.28 25.92 247.68 25.92 
L 195.84 25.92 
Q 192.24 25.92 192.24 29.52 
L 192.24 59.76 
Q 192.24 63.36 195.84 63.36 
z
" clip-path="url(#pd1e98d9574)" style="fill: #edf0f3; stroke: #9aa7b4; stroke-linejoin: miter"/>
   </g>
   <g id="patch_21">
    <path d="M 119.52 187.2 
L 184.32 187.2 
Q 187.92 187.2 187.92 183.6 
L 187.92 153.36 
Q 187.92 149.76 184.32 149.76 
L 119.52 149.76 
Q 115.92 149.76 115.92 153.36 
L 115.92 183.6 
Q 115.92 187.2 119.52 187.2 
z
" clip-path="url(#pd1e98d9574)" style="fill: #fff3e0; stroke: #ffb454; stroke-linejoin: miter"/>
   </g>
   <g id="patch_22">
    <path d="M 195.84 187.2 
L 247.68 187.2 
Q 251.28 187.2 251.28 183.6 
L 251.28 153.36 
Q 251.28 149.76 247.68 149.76 
L 195.84 149.76 
Q 192.24 149.76 192.24 153.36 
L 192.24 183.6 
Q 192.24 187.2 195.84 187.2 
z
" clip-path="url(#pd1e98d9574)" style="fill: #fff3e0; stroke: #ffb454; stroke-linejoin: miter"/>
   </g>
   <g id="patch_23">
    <path d="M 77.76 128.88 
L 153.36 128.88 
Q 156.96 128.88 156.96 125.28 
L 156.96 90.72 
Q 156.96 87.12 153.36 87.12 
L 77.76 87.12 
Q 74.16 87.12 74.16 90.72 
L 74.16 125.28 
Q 74.16 128.88 77.76 128.88 
z
" clip-path="url(#pd1e98d9574)" style="fill: #e8f8f0; stroke: #5ad19a; stroke-width: 1.3; stroke-linejoin: miter"/>
   </g>
   <g id="text_1">
    <!-- question $q$ -->
    <g style="fill: #2a3340" transform="translate(85.6 184.4)">
     <text>
      <tspan x="0" y="-0.203125" style="font-size: 8px; font-family: 'Liberation Sans'; fill: #2a3340">q</tspan>
      <tspan x="4.449219" y="-0.203125" style="font-size: 8px; font-family: 'Liberation Sans'; fill: #2a3340">u</tspan>
      <tspan x="8.898438" y="-0.203125" style="font-size: 8px; font-family: 'Liberation Sans'; fill: #2a3340">e</tspan>
      <tspan x="13.347656" y="-0.203125" style="font-size: 8px; font-family: 'Liberation Sans'; fill: #2a3340">s</tspan>
      <tspan x="17.347656" y="-0.203125" style="font-size: 8px; font-family: 'Liberation Sans'; fill: #2a3340">t</tspan>
      <tspan x="19.570312" y="-0.203125" style="font-size: 8px; font-family: 'Liberation Sans'; fill: #2a3340">i</tspan>
      <tspan x="21.347656" y="-0.203125" style="font-size: 8px; font-family: 'Liberation Sans'; fill: #2a3340">o</tspan>
      <tspan x="25.796875" y="-0.203125" style="font-size: 8px; font-family: 'Liberation Sans'; fill: #2a3340">n</tspan>
      <tspan x="30.246094" y="-0.203125" style="font-size: 8px; font-family: 'Liberation Sans'; fill: #2a3340"> </tspan>
      <tspan x="32.46875" y="-0.203125" style="font-style: oblique; font-size: 8px; font-family: 'DejaVu Sans'; fill: #2a3340">q</tspan>
     </text>
    </g>
   </g>
   <g id="text_2">
    <!-- symbolic $q$ $\to$ tokens:  counting · -->
    <g style="fill: #1f7a54" transform="translate(88.56 73.0115)">
     <text>
      <tspan x="0" y="-0.203125" style="font-size: 8px; font-family: 'Liberation Sans'; fill: #1f7a54">s</tspan>
      <tspan x="4" y="-0.203125" style="font-size: 8px; font-family: 'Liberation Sans'; fill: #1f7a54">y</tspan>
      <tspan x="8" y="-0.203125" style="font-size: 8px; font-family: 'Liberation Sans'; fill: #1f7a54">m</tspan>
      <tspan x="14.664062" y="-0.203125" style="font-size: 8px; font-family: 'Liberation Sans'; fill: #1f7a54">b</tspan>
      <tspan x="19.113281" y="-0.203125" style="font-size: 8px; font-family: 'Liberation Sans'; fill: #1f7a54">o</tspan>
      <tspan x="23.5625" y="-0.203125" style="font-size: 8px; font-family: 'Liberation Sans'; fill: #1f7a54">l</tspan>
      <tspan x="25.339844" y="-0.203125" style="font-size: 8px; font-family: 'Liberation Sans'; fill: #1f7a54">i</tspan>
      <tspan x="27.117188" y="-0.203125" style="font-size: 8px; font-family: 'Liberation Sans'; fill: #1f7a54">c</tspan>
      <tspan x="31.117188" y="-0.203125" style="font-size: 8px; font-family: 'Liberation Sans'; fill: #1f7a54"> </tspan>
      <tspan x="38.417969" y="-0.203125" style="font-size: 8px; font-family: 'Liberation Sans'; fill: #1f7a54"> </tspan>
      <tspan x="50.460938" y="-0.203125" style="font-size: 8px; font-family: 'Liberation Sans'; fill: #1f7a54"> </tspan>
      <tspan x="52.683594" y="-0.203125" style="font-size: 8px; font-family: 'Liberation Sans'; fill: #1f7a54">t</tspan>
      <tspan x="54.90625" y="-0.203125" style="font-size: 8px; font-family: 'Liberation Sans'; fill: #1f7a54">o</tspan>
      <tspan x="59.355469" y="-0.203125" style="font-size: 8px; font-family: 'Liberation Sans'; fill: #1f7a54">k</tspan>
      <tspan x="63.355469" y="-0.203125" style="font-size: 8px; font-family: 'Liberation Sans'; fill: #1f7a54">e</tspan>
      <tspan x="67.804688" y="-0.203125" style="font-size: 8px; font-family: 'Liberation Sans'; fill: #1f7a54">n</tspan>
      <tspan x="72.253906" y="-0.203125" style="font-size: 8px; font-family: 'Liberation Sans'; fill: #1f7a54">s</tspan>
      <tspan x="76.253906" y="-0.203125" style="font-size: 8px; font-family: 'Liberation Sans'; fill: #1f7a54">:</tspan>
      <tspan x="78.476562" y="-0.203125" style="font-size: 8px; font-family: 'Liberation Sans'; fill: #1f7a54"> </tspan>
      <tspan x="80.699219" y="-0.203125" style="font-size: 8px; font-family: 'Liberation Sans'; fill: #1f7a54"> </tspan>
      <tspan x="82.921875" y="-0.203125" style="font-size: 8px; font-family: 'Liberation Sans'; fill: #1f7a54">c</tspan>
      <tspan x="86.921875" y="-0.203125" style="font-size: 8px; font-family: 'Liberation Sans'; fill: #1f7a54">o</tspan>
      <tspan x="91.371094" y="-0.203125" style="font-size: 8px; font-family: 'Liberation Sans'; fill: #1f7a54">u</tspan>
      <tspan x="95.820312" y="-0.203125" style="font-size: 8px; font-family: 'Liberation Sans'; fill: #1f7a54">n</tspan>
      <tspan x="100.269531" y="-0.203125" style="font-size: 8px; font-family: 'Liberation Sans'; fill: #1f7a54">t</tspan>
      <tspan x="102.492188" y="-0.203125" style="font-size: 8px; font-family: 'Liberation Sans'; fill: #1f7a54">i</tspan>
      <tspan x="104.269531" y="-0.203125" style="font-size: 8px; font-family: 'Liberation Sans'; fill: #1f7a54">n</tspan>
      <tspan x="108.71875" y="-0.203125" style="font-size: 8px; font-family: 'Liberation Sans'; fill: #1f7a54">g</tspan>
      <tspan x="113.167969" y="-0.203125" style="font-size: 8px; font-family: 'Liberation Sans'; fill: #1f7a54"> </tspan>
      <tspan x="115.390625" y="-0.203125" style="font-size: 8px; font-family: 'Liberation Sans'; fill: #1f7a54">·</tspan>
      <tspan x="33.339844" y="-0.203125" style="font-style: oblique; font-size: 8px; font-family: 'DejaVu Sans'; fill: #1f7a54">q</tspan>
      <tspan x="42.199219" y="-0.203125" style="font-size: 8px; font-family: 'DejaVu Sans'; fill: #1f7a54">→</tspan>
     </text>
    </g>
    <text style="font-size: 8px; font-family: 'Helvetica', 'Arial', 'Liberation Sans', 'DejaVu Sans', sans-serif; fill: #1f7a54" transform="translate(81.353125 81.6485)">comparison · co-presence · threshold</text>
   </g>
   <g id="text_3">
    <!-- perception $q$ $\to$ image: -->
    <g style="fill: #1f7a54" transform="translate(132.76 137.0915)">
     <text>
      <tspan x="0" y="-0.203125" style="font-size: 8px; font-family: 'Liberation Sans'; fill: #1f7a54">p</tspan>
      <tspan x="4.449219" y="-0.203125" style="font-size: 8px; font-family: 'Liberation Sans'; fill: #1f7a54">e</tspan>
      <tspan x="8.898438" y="-0.203125" style="font-size: 8px; font-family: 'Liberation Sans'; fill: #1f7a54">r</tspan>
      <tspan x="11.5625" y="-0.203125" style="font-size: 8px; font-family: 'Liberation Sans'; fill: #1f7a54">c</tspan>
      <tspan x="15.5625" y="-0.203125" style="font-size: 8px; font-family: 'Liberation Sans'; fill: #1f7a54">e</tspan>
      <tspan x="20.011719" y="-0.203125" style="font-size: 8px; font-family: 'Liberation Sans'; fill: #1f7a54">p</tspan>
      <tspan x="24.460938" y="-0.203125" style="font-size: 8px; font-family: 'Liberation Sans'; fill: #1f7a54">t</tspan>
      <tspan x="26.683594" y="-0.203125" style="font-size: 8px; font-family: 'Liberation Sans'; fill: #1f7a54">i</tspan>
      <tspan x="28.460938" y="-0.203125" style="font-size: 8px; font-family: 'Liberation Sans'; fill: #1f7a54">o</tspan>
      <tspan x="32.910156" y="-0.203125" style="font-size: 8px; font-family: 'Liberation Sans'; fill: #1f7a54">n</tspan>
      <tspan x="37.359375" y="-0.203125" style="font-size: 8px; font-family: 'Liberation Sans'; fill: #1f7a54"> </tspan>
      <tspan x="44.660156" y="-0.203125" style="font-size: 8px; font-family: 'Liberation Sans'; fill: #1f7a54"> </tspan>
      <tspan x="56.703125" y="-0.203125" style="font-size: 8px; font-family: 'Liberation Sans'; fill: #1f7a54"> </tspan>
      <tspan x="58.925781" y="-0.203125" style="font-size: 8px; font-family: 'Liberation Sans'; fill: #1f7a54">i</tspan>
      <tspan x="60.703125" y="-0.203125" style="font-size: 8px; font-family: 'Liberation Sans'; fill: #1f7a54">m</tspan>
      <tspan x="67.367188" y="-0.203125" style="font-size: 8px; font-family: 'Liberation Sans'; fill: #1f7a54">a</tspan>
      <tspan x="71.816406" y="-0.203125" style="font-size: 8px; font-family: 'Liberation Sans'; fill: #1f7a54">g</tspan>
      <tspan x="76.265625" y="-0.203125" style="font-size: 8px; font-family: 'Liberation Sans'; fill: #1f7a54">e</tspan>
      <tspan x="80.714844" y="-0.203125" style="font-size: 8px; font-family: 'Liberation Sans'; fill: #1f7a54">:</tspan>
      <tspan x="39.582031" y="-0.203125" style="font-style: oblique; font-size: 8px; font-family: 'DejaVu Sans'; fill: #1f7a54">q</tspan>
      <tspan x="48.441406" y="-0.203125" style="font-size: 8px; font-family: 'DejaVu Sans'; fill: #1f7a54">→</tspan>
     </text>
    </g>
    <text style="font-size: 8px; font-family: 'Helvetica', 'Arial', 'Liberation Sans', 'DejaVu Sans', sans-serif; fill: #1f7a54" transform="translate(157.78625 145.7285)">presence</text>
   </g>
   <g id="text_4">
    <!-- energy price $\lambda$ -->
    <g style="fill: #2a3340" transform="translate(19.44 178.88)">
     <text>
      <tspan x="0" y="-0.921875" style="font-size: 8px; font-family: 'Liberation Sans'; fill: #2a3340">e</tspan>
      <tspan x="4.449219" y="-0.921875" style="font-size: 8px; font-family: 'Liberation Sans'; fill: #2a3340">n</tspan>
      <tspan x="8.898438" y="-0.921875" style="font-size: 8px; font-family: 'Liberation Sans'; fill: #2a3340">e</tspan>
      <tspan x="13.347656" y="-0.921875" style="font-size: 8px; font-family: 'Liberation Sans'; fill: #2a3340">r</tspan>
      <tspan x="16.011719" y="-0.921875" style="font-size: 8px; font-family: 'Liberation Sans'; fill: #2a3340">g</tspan>
      <tspan x="20.460938" y="-0.921875" style="font-size: 8px; font-family: 'Liberation Sans'; fill: #2a3340">y</tspan>
      <tspan x="24.460938" y="-0.921875" style="font-size: 8px; font-family: 'Liberation Sans'; fill: #2a3340"> </tspan>
      <tspan x="26.683594" y="-0.921875" style="font-size: 8px; font-family: 'Liberation Sans'; fill: #2a3340">p</tspan>
      <tspan x="31.132812" y="-0.921875" style="font-size: 8px; font-family: 'Liberation Sans'; fill: #2a3340">r</tspan>
      <tspan x="33.796875" y="-0.921875" style="font-size: 8px; font-family: 'Liberation Sans'; fill: #2a3340">i</tspan>
      <tspan x="35.574219" y="-0.921875" style="font-size: 8px; font-family: 'Liberation Sans'; fill: #2a3340">c</tspan>
      <tspan x="39.574219" y="-0.921875" style="font-size: 8px; font-family: 'Liberation Sans'; fill: #2a3340">e</tspan>
      <tspan x="44.023438" y="-0.921875" style="font-size: 8px; font-family: 'Liberation Sans'; fill: #2a3340"> </tspan>
      <tspan x="46.246094" y="-0.921875" style="font-style: oblique; font-size: 8px; font-family: 'DejaVu Sans'; fill: #2a3340">λ</tspan>
     </text>
    </g>
    <text style="font-size: 8px; font-family: 'Helvetica', 'Arial', 'Liberation Sans', 'DejaVu Sans', sans-serif; fill: #2a3340" transform="translate(19.44 187.517)">(budget knob)</text>
   </g>
   <g id="patch_24">
    <path d="M 262.8 198.72 
L 298.8 198.72 
Q 302.4 198.72 302.4 195.12 
L 302.4 5.76 
Q 302.4 2.16 298.8 2.16 
L 262.8 2.16 
Q 259.2 2.16 259.2 5.76 
L 259.2 195.12 
Q 259.2 198.72 262.8 198.72 
z
" clip-path="url(#pd1e98d9574)" style="fill: #eef4fb; stroke: #7f9ab8; stroke-width: 0.9; stroke-linejoin: miter"/>
   </g>
   <g id="line2d_1">
    <path d="M 264.96 53.593801 
L 265.496949 53.847359 
L 266.033898 54.197294 
L 266.570847 54.622428 
L 267.107797 55.097037 
L 267.644746 55.5924 
L 268.181695 56.07854 
L 268.718644 56.52604 
L 269.255593 56.90782 
L 269.792542 57.200778 
L 270.329492 57.387185 
L 270.866441 57.455761 
L 271.40339 57.402356 
L 271.940339 57.230203 
L 272.477288 56.949718 
L 273.014237 56.577875 
L 273.551186 56.137176 
L 274.088136 55.654288 
L 274.625085 55.158432 
L 275.162034 54.679616 
L 275.698983 54.246813 
L 276.235932 53.886213 
L 276.772881 53.619639 
L 277.309831 53.463221 
L 277.84678 53.426424 
L 278.383729 53.511476 
L 278.920678 53.713229 
L 279.457627 54.019475 
L 279.994576 54.411682 
L 280.531525 54.866116 
L 281.068475 55.355278 
L 281.605424 55.849566 
L 282.142373 56.31907 
L 282.679322 56.735379 
L 283.216271 57.0733 
L 283.75322 57.312384 
L 284.290169 57.438164 
L 284.827119 57.443028 
L 285.364068 57.326683 
L 285.901017 57.096167 
L 286.437966 56.765432 
L 286.974915 56.35449 
L 287.511864 55.888209 
L 288.048814 55.394805 
L 288.585763 54.904137 
L 289.122712 54.445895 
L 289.659661 54.04781 
L 290.19661 53.733971 
L 290.733559 53.52337 
L 291.270508 53.42875 
L 291.807458 53.455838 
L 292.344407 53.602995 
L 292.881356 53.861315 
L 293.418305 54.215166 
L 293.955254 54.643137 
L 294.492203 55.119328 
L 295.029153 55.614924 
L 295.566102 56.099935 
L 296.103051 56.545011 
L 296.64 56.923219 
" clip-path="url(#pd1e98d9574)" style="fill: none; stroke: #7f9ab8; stroke-width: 0.8; stroke-linecap: square"/>
   </g>
   <g id="line2d_2">
    <path d="M 264.96 177.433801 
L 265.496949 177.687359 
L 266.033898 178.037294 
L 266.570847 178.462428 
L 267.107797 178.937037 
L 267.644746 179.4324 
L 268.181695 179.91854 
L 268.718644 180.36604 
L 269.255593 180.74782 
L 269.792542 181.040778 
L 270.329492 181.227185 
L 270.866441 181.295761 
L 271.40339 181.242356 
L 271.940339 181.070203 
L 272.477288 180.789718 
L 273.014237 180.417875 
L 273.551186 179.977176 
L 274.088136 179.494288 
L 274.625085 178.998432 
L 275.162034 178.519616 
L 275.698983 178.086813 
L 276.235932 177.726213 
L 276.772881 177.459639 
L 277.309831 177.303221 
L 277.84678 177.266424 
L 278.383729 177.351476 
L 278.920678 177.553229 
L 279.457627 177.859475 
L 279.994576 178.251682 
L 280.531525 178.706116 
L 281.068475 179.195278 
L 281.605424 179.689566 
L 282.142373 180.15907 
L 282.679322 180.575379 
L 283.216271 180.9133 
L 283.75322 181.152384 
L 284.290169 181.278164 
L 284.827119 181.283028 
L 285.364068 181.166683 
L 285.901017 180.936167 
L 286.437966 180.605432 
L 286.974915 180.19449 
L 287.511864 179.728209 
L 288.048814 179.234805 
L 288.585763 178.744137 
L 289.122712 178.285895 
L 289.659661 177.88781 
L 290.19661 177.573971 
L 290.733559 177.36337 
L 291.270508 177.26875 
L 291.807458 177.295838 
L 292.344407 177.442995 
L 292.881356 177.701315 
L 293.418305 178.055166 
L 293.955254 178.483137 
L 294.492203 178.959328 
L 295.029153 179.454924 
L 295.566102 179.939935 
L 296.103051 180.385011 
L 296.64 180.763219 
" clip-path="url(#pd1e98d9574)" style="fill: none; stroke: #7f9ab8; stroke-width: 0.8; stroke-linecap: square"/>
   </g>
   <g id="patch_25">
    <path d="M 316.08 63.36 
L 405.36 63.36 
Q 408.96 63.36 408.96 59.76 
L 408.96 29.52 
Q 408.96 25.92 405.36 25.92 
L 316.08 25.92 
Q 312.48 25.92 312.48 29.52 
L 312.48 59.76 
Q 312.48 63.36 316.08 63.36 
z
" clip-path="url(#pd1e98d9574)" style="fill: #edf0f3; stroke: #9aa7b4; stroke-linejoin: miter"/>
   </g>
   <g id="patch_26">
    <path d="M 316.08 187.2 
L 405.36 187.2 
Q 408.96 187.2 408.96 183.6 
L 408.96 153.36 
Q 408.96 149.76 405.36 149.76 
L 316.08 149.76 
Q 312.48 149.76 312.48 153.36 
L 312.48 183.6 
Q 312.48 187.2 316.08 187.2 
z
" clip-path="url(#pd1e98d9574)" style="fill: #fff3e0; stroke: #ffb454; stroke-linejoin: miter"/>
   </g>
   <g id="text_5">
    <text style="font-style: italic; font-size: 8px; font-family: 'Helvetica', 'Arial', 'Liberation Sans', 'DejaVu Sans', sans-serif; text-anchor: middle; fill: #5c6a78" x="360.72" y="145.58" transform="rotate(-0 360.72 145.58)">reads the reconstructed image</text>
   </g>
   <g id="text_6">
    <text style="font-style: italic; font-size: 8px; font-family: 'Helvetica', 'Arial', 'Liberation Sans', 'DejaVu Sans', sans-serif; text-anchor: middle; fill: #5c6a78" x="360.72" y="71.6775" transform="rotate(-0 360.72 71.6775)">reads the decoded tokens</text>
   </g>
   <g id="patch_27">
    <path d="M 451.44 128.16 
L 501.84 128.16 
Q 505.44 128.16 505.44 124.56 
L 505.44 94.32 
Q 505.44 90.72 501.84 90.72 
L 451.44 90.72 
Q 447.84 90.72 447.84 94.32 
L 447.84 124.56 
Q 447.84 128.16 451.44 128.16 
z
" clip-path="url(#pd1e98d9574)" style="fill: #ffffff; stroke: #2a3340; stroke-width: 1.2; stroke-linejoin: miter"/>
   </g>
   <g id="patch_28">
    <path d="M 22.32 241.92 
L 205.2 241.92 
Q 208.8 241.92 208.8 238.32 
L 208.8 208.08 
Q 208.8 204.48 205.2 204.48 
L 22.32 204.48 
Q 18.72 204.48 18.72 208.08 
L 18.72 238.32 
Q 18.72 241.92 22.32 241.92 
z
" clip-path="url(#pd1e98d9574)" style="fill: #ffffff; stroke: #9aa7b4; stroke-width: 1.2; stroke-linejoin: miter"/>
   </g>
   <g id="patch_29">
    <path d="M 310.32 241.92 
L 493.2 241.92 
Q 496.8 241.92 496.8 238.32 
L 496.8 208.08 
Q 496.8 204.48 493.2 204.48 
L 310.32 204.48 
Q 306.72 204.48 306.72 208.08 
L 306.72 238.32 
Q 306.72 241.92 310.32 241.92 
z
" clip-path="url(#pd1e98d9574)" style="fill: #ffffff; stroke: #ffb454; stroke-width: 1.2; stroke-linejoin: miter"/>
   </g>
   <g id="patch_30">
    <path d="M 100.8 171 
L 108 171 
L 108 165.96 
L 100.8 165.96 
z
" clip-path="url(#pd1e98d9574)" style="fill: #ffffff"/>
   </g>
   <g id="patch_31">
    <path d="M 104.4 175.68 
Q 104.4 151.56 104.4 128.781641 
" clip-path="url(#pd1e98d9574)" style="fill: none; stroke: #5ad19a; stroke-width: 1.2; stroke-linecap: round"/>
    <path d="M 102.6 132.381641 
L 104.4 128.781641 
L 106.2 132.381641 
z
" clip-path="url(#pd1e98d9574)" style="fill: #5ad19a; stroke: #5ad19a; stroke-width: 1.2; stroke-linecap: round"/>
   </g>
   <g id="patch_32">
    <path d="M 155.52 108 
Q 188.64 108 221.76 108 
" clip-path="url(#pd1e98d9574)" style="fill: none; stroke-dasharray: 4.44,1.92; stroke-dashoffset: 0; stroke: #5ad19a; stroke-width: 1.2; stroke-linecap: round"/>
   </g>
   <g id="patch_33">
    <path d="M 221.76 108 
Q 221.76 85.5 221.76 64.341641 
" clip-path="url(#pd1e98d9574)" style="fill: none; stroke-dasharray: 4.44,1.92; stroke-dashoffset: 0; stroke: #5ad19a; stroke-width: 1.2; stroke-linecap: round"/>
    <path d="M 219.96 67.941641 
L 221.76 64.341641 
L 223.56 67.941641 
z
" clip-path="url(#pd1e98d9574)" style="fill: #5ad19a; stroke-dasharray: 4.44,1.92; stroke-dashoffset: 0; stroke: #5ad19a; stroke-width: 1.2; stroke-linecap: round"/>
   </g>
   <g id="patch_34">
    <path d="M 221.76 108 
Q 221.76 129.06 221.76 148.778359 
" clip-path="url(#pd1e98d9574)" style="fill: none; stroke-dasharray: 4.44,1.92; stroke-dashoffset: 0; stroke: #5ad19a; stroke-width: 1.2; stroke-linecap: round"/>
    <path d="M 223.56 145.178359 
L 221.76 148.778359 
L 219.96 145.178359 
z
" clip-path="url(#pd1e98d9574)" style="fill: #5ad19a; stroke-dasharray: 4.44,1.92; stroke-dashoffset: 0; stroke: #5ad19a; stroke-width: 1.2; stroke-linecap: round"/>
   </g>
   <g id="patch_35">
    <path d="M 46.8 145.44 
Q 64.8 136.44 81.8 127.94 
" clip-path="url(#pd1e98d9574)" style="fill: none; stroke-dasharray: 3.7,1.6; stroke-dashoffset: 0; stroke: #5ad19a; stroke-linecap: round"/>
    <path d="M 77.775078 127.94 
L 81.8 127.94 
L 79.385047 131.159938 
z
" clip-path="url(#pd1e98d9574)" style="fill: #5ad19a; stroke-dasharray: 3.7,1.6; stroke-dashoffset: 0; stroke: #5ad19a; stroke-linecap: round"/>
   </g>
   <g id="patch_36">
    <path d="M 249.84 44.64 
Q 281.88 44.64 312.466556 44.64 
" clip-path="url(#pd1e98d9574)" style="fill: none; stroke: #9aa7b4; stroke-width: 1.3; stroke-linecap: round"/>
    <path d="M 308.866556 42.84 
L 312.466556 44.64 
L 308.866556 46.44 
z
" clip-path="url(#pd1e98d9574)" style="fill: #9aa7b4; stroke: #9aa7b4; stroke-width: 1.3; stroke-linecap: round"/>
   </g>
   <g id="patch_37">
    <path d="M 249.84 168.48 
Q 281.88 168.48 312.466556 168.48 
" clip-path="url(#pd1e98d9574)" style="fill: none; stroke: #ffb454; stroke-width: 1.3; stroke-linecap: round"/>
    <path d="M 308.866556 166.68 
L 312.466556 168.48 
L 308.866556 170.28 
z
" clip-path="url(#pd1e98d9574)" style="fill: #ffb454; stroke: #ffb454; stroke-width: 1.3; stroke-linecap: round"/>
   </g>
   <g id="text_7">
    <text style="font-weight: 700; font-size: 9px; font-family: 'Helvetica', 'Arial', 'Liberation Sans', 'DejaVu Sans', sans-serif; text-anchor: start; fill: #5c6a78" x="11.52" y="15.647344" transform="rotate(-0 11.52 15.647344)">UAV (transmitter)</text>
   </g>
   <g id="text_8">
    <text style="font-weight: 700; font-size: 9px; font-family: 'Helvetica', 'Arial', 'Liberation Sans', 'DejaVu Sans', sans-serif; text-anchor: end; fill: #5c6a78" x="504" y="15.627656" transform="rotate(-0 504 15.627656)">edge server (receiver)</text>
   </g>
   <g id="text_9">
    <text style="font-size: 8px; font-family: 'Helvetica', 'Arial', 'Liberation Sans', 'DejaVu Sans', sans-serif; fill: #2a3340" transform="translate(17.9375 108.065188)">aerial</text>
    <text style="font-size: 8px; font-family: 'Helvetica', 'Arial', 'Liberation Sans', 'DejaVu Sans', sans-serif; fill: #2a3340" transform="translate(17.49625 116.392313)">frame</text>
   </g>
   <g id="text_10">
    <text style="font-size: 8px; font-family: 'Helvetica', 'Arial', 'Liberation Sans', 'DejaVu Sans', sans-serif; fill: #2a3340" transform="translate(63.79625 42.545188)">YOLOv8n</text>
    <text style="font-size: 8px; font-family: 'Helvetica', 'Arial', 'Liberation Sans', 'DejaVu Sans', sans-serif; fill: #2a3340" transform="translate(66.908125 50.872313)">detector</text>
   </g>
   <g id="text_11">
    <text style="font-size: 8px; font-family: 'Helvetica', 'Arial', 'Liberation Sans', 'DejaVu Sans', sans-serif; fill: #2a3340" transform="translate(123.241875 42.545188)">tokens: cls, box,</text>
    <text style="font-size: 8px; font-family: 'Helvetica', 'Arial', 'Liberation Sans', 'DejaVu Sans', sans-serif; fill: #2a3340" transform="translate(120.793125 50.872313)">conf (0.7–1.2 KB)</text>
   </g>
   <g id="text_12">
    <!-- LDPC $r{=}1/2$ -->
    <g style="fill: #2a3340" transform="translate(197.12 42.545188)">
     <text>
      <tspan x="0" y="-0.0625" style="font-size: 8px; font-family: 'Liberation Sans'; fill: #2a3340">L</tspan>
      <tspan x="4.449219" y="-0.0625" style="font-size: 8px; font-family: 'Liberation Sans'; fill: #2a3340">D</tspan>
      <tspan x="10.226562" y="-0.0625" style="font-size: 8px; font-family: 'Liberation Sans'; fill: #2a3340">P</tspan>
      <tspan x="15.5625" y="-0.0625" style="font-size: 8px; font-family: 'Liberation Sans'; fill: #2a3340">C</tspan>
      <tspan x="21.339844" y="-0.0625" style="font-size: 8px; font-family: 'Liberation Sans'; fill: #2a3340"> </tspan>
      <tspan x="23.5625" y="-0.0625" style="font-style: oblique; font-size: 8px; font-family: 'DejaVu Sans'; fill: #2a3340">r</tspan>
      <tspan x="28.410156" y="-0.0625" style="font-size: 8px; font-family: 'DejaVu Sans'; fill: #2a3340">=</tspan>
      <tspan x="36.671875" y="-0.0625" style="font-size: 8px; font-family: 'DejaVu Sans'; fill: #2a3340">1</tspan>
      <tspan x="41.761719" y="-0.0625" style="font-size: 8px; font-family: 'DejaVu Sans'; fill: #2a3340">/</tspan>
      <tspan x="44.207031" y="-0.0625" style="font-size: 8px; font-family: 'DejaVu Sans'; fill: #2a3340">2</tspan>
     </text>
    </g>
    <text style="font-size: 8px; font-family: 'Helvetica', 'Arial', 'Liberation Sans', 'DejaVu Sans', sans-serif; fill: #2a3340" transform="translate(207.64 50.872313)">+ BPSK</text>
   </g>
   <g id="text_13">
    <text style="font-size: 8px; font-family: 'Helvetica', 'Arial', 'Liberation Sans', 'DejaVu Sans', sans-serif; fill: #2a3340" transform="translate(125.9075 166.385188)">JPEG encoder</text>
    <text style="font-size: 8px; font-family: 'Helvetica', 'Arial', 'Liberation Sans', 'DejaVu Sans', sans-serif; fill: #2a3340" transform="translate(125.910625 174.712312)">(rate-adaptive)</text>
   </g>
   <g id="text_14">
    <text style="font-size: 8px; font-family: 'Helvetica', 'Arial', 'Liberation Sans', 'DejaVu Sans', sans-serif; fill: #2a3340" transform="translate(211.09 166.385188)">LDPC</text>
    <text style="font-size: 8px; font-family: 'Helvetica', 'Arial', 'Liberation Sans', 'DejaVu Sans', sans-serif; fill: #2a3340" transform="translate(195.750625 174.712312)">(rate-adaptive)</text>
   </g>
   <g id="text_15">
    <text style="font-weight: 700; font-size: 8px; font-family: 'Helvetica', 'Arial', 'Liberation Sans', 'DejaVu Sans', sans-serif; fill: #2a3340" transform="translate(89.34 101.741625)">question-type</text>
    <text style="font-weight: 700; font-size: 8px; font-family: 'Helvetica', 'Arial', 'Liberation Sans', 'DejaVu Sans', sans-serif; fill: #2a3340" transform="translate(104.00375 110.06875)">router</text>
    <text style="font-weight: 700; font-size: 8px; font-family: 'Helvetica', 'Arial', 'Liberation Sans', 'DejaVu Sans', sans-serif; fill: #2a3340" transform="translate(85.116875 118.395875)">(no CSI needed)</text>
   </g>
   <g id="line2d_3">
    <path d="M 47.939821 148.390649 
L 47.687083 147.92739 
L 47.408637 147.47911 
L 47.105371 147.047236 
L 46.778247 146.63314 
L 46.428306 146.238137 
L 46.056659 145.863485 
L 45.664488 145.510373 
L 45.25304 145.179924 
L 44.823623 144.873188 
L 44.377601 144.591141 
L 43.916393 144.334679 
L 43.441464 144.104617 
L 42.954324 143.901687 
L 42.456522 143.726534 
L 41.949639 143.579713 
L 41.435288 143.461693 
L 40.915103 143.372848 
L 40.390738 143.313461 
L 39.863859 143.28372 
L 39.336141 143.28372 
L 38.809262 143.313461 
L 38.284897 143.372848 
L 37.764712 143.461693 
L 37.250361 143.579713 
L 36.743478 143.726534 
L 36.245676 143.901687 
L 35.758536 144.104617 
L 35.283607 144.334679 
L 34.822399 144.591141 
L 34.376377 144.873188 
L 33.94696 145.179924 
L 33.535512 145.510373 
L 33.143341 145.863485 
L 32.771694 146.238137 
L 32.421753 146.63314 
L 32.094629 147.047236 
L 31.791363 147.47911 
L 31.512917 147.92739 
L 31.260179 148.390649 
" clip-path="url(#pd1e98d9574)" style="fill: none; stroke: #5ad19a; stroke-width: 1.6; stroke-linecap: round"/>
   </g>
   <g id="line2d_4">
    <path d="M 39.6 152.64 
L 42.873364 144.372427 
" clip-path="url(#pd1e98d9574)" style="fill: none; stroke: #2a3340; stroke-width: 1.4; stroke-linecap: square"/>
   </g>
   <g id="text_16">
    <text style="font-size: 8px; font-family: 'Helvetica', 'Arial', 'Liberation Sans', 'DejaVu Sans', sans-serif; fill: #2a3340" transform="translate(278.42875 143.24875) rotate(-90)">block-fading channel</text>
    <!-- $\gamma = -5\ldots20$ dB -->
    <g style="fill: #2a3340" transform="translate(287.28875 134.84) rotate(-90)">
     <text>
      <tspan x="0" y="-0.0625" style="font-style: oblique; font-size: 8px; font-family: 'DejaVu Sans'; fill: #2a3340">γ</tspan>
      <tspan x="6.292969" y="-0.0625" style="font-size: 8px; font-family: 'DejaVu Sans'; fill: #2a3340">=</tspan>
      <tspan x="14.554688" y="-0.0625" style="font-size: 8px; font-family: 'DejaVu Sans'; fill: #2a3340">−</tspan>
      <tspan x="21.257812" y="-0.0625" style="font-size: 8px; font-family: 'DejaVu Sans'; fill: #2a3340">5</tspan>
      <tspan x="26.347656" y="-0.0625" style="font-size: 8px; font-family: 'DejaVu Sans'; fill: #2a3340">…</tspan>
      <tspan x="34.347656" y="-0.0625" style="font-size: 8px; font-family: 'DejaVu Sans'; fill: #2a3340">2</tspan>
      <tspan x="39.4375" y="-0.0625" style="font-size: 8px; font-family: 'DejaVu Sans'; fill: #2a3340">0</tspan>
      <tspan x="44.527344" y="-0.0625" style="font-size: 8px; font-family: 'Liberation Sans'; fill: #2a3340"> </tspan>
      <tspan x="46.75" y="-0.0625" style="font-size: 8px; font-family: 'Liberation Sans'; fill: #2a3340">d</tspan>
      <tspan x="51.199219" y="-0.0625" style="font-size: 8px; font-family: 'Liberation Sans'; fill: #2a3340">B</tspan>
     </text>
    </g>
   </g>
   <g id="text_17">
    <text style="font-weight: 700; font-size: 8px; font-family: 'Helvetica', 'Arial', 'Liberation Sans', 'DejaVu Sans', sans-serif; text-anchor: middle; fill: #2a3340" x="280.8" y="21.74" transform="rotate(-0 280.8 21.74)">0.9 KB</text>
   </g>
   <g id="text_18">
    <text style="font-weight: 700; font-size: 8px; font-family: 'Helvetica', 'Arial', 'Liberation Sans', 'DejaVu Sans', sans-serif; text-anchor: middle; fill: #2a3340" x="280.8" y="195.5175" transform="rotate(-0 280.8 195.5175)">14–215 KB</text>
   </g>
   <g id="text_19">
    <text style="font-size: 8px; font-family: 'Helvetica', 'Arial', 'Liberation Sans', 'DejaVu Sans', sans-serif; fill: #2a3340" transform="translate(329.596875 42.545188)">symbolic decoder</text>
    <text style="font-size: 8px; font-family: 'Helvetica', 'Arial', 'Liberation Sans', 'DejaVu Sans', sans-serif; fill: #2a3340" transform="translate(331.599375 50.872313)">(rule-based, 0 J)</text>
   </g>
   <g id="text_20">
    <text style="font-size: 8px; font-family: 'Helvetica', 'Arial', 'Liberation Sans', 'DejaVu Sans', sans-serif; fill: #2a3340" transform="translate(340.268125 166.385188)">frozen VLM</text>
    <text style="font-size: 8px; font-family: 'Helvetica', 'Arial', 'Liberation Sans', 'DejaVu Sans', sans-serif; fill: #2a3340" transform="translate(332.934375 174.712312)">(Qwen2-VL-2B)</text>
   </g>
   <g id="text_21">
    <text style="font-weight: 700; font-size: 8px; font-family: 'Helvetica', 'Arial', 'Liberation Sans', 'DejaVu Sans', sans-serif; fill: #2a3340" transform="translate(462.855625 105.20875)">answer</text>
    <!-- $\hat A_q$ -->
    <g style="fill: #2a3340" transform="translate(471.96 116.98875)">
     <text>
      <tspan x="5.585938" y="-2.59375" style="font-size: 8px; font-family: 'DejaVu Sans'; fill: #2a3340">̂</tspan>
      <tspan x="0" y="-0.25" style="font-style: oblique; font-size: 8px; font-family: 'DejaVu Sans'; fill: #2a3340">A</tspan>
      <tspan x="5.549219" y="1.0625" style="font-style: oblique; font-size: 5.6px; font-family: 'DejaVu Sans'; fill: #2a3340">q</tspan>
     </text>
    </g>
   </g>
   <g id="patch_38">
    <path d="M 25.92 236.16 
L 198.588343 236.16 
L 198.588343 225.72 
L 25.92 225.72 
z
" clip-path="url(#pd1e98d9574)" style="fill: #4a5763; stroke: #2a3340; stroke-width: 0.5; stroke-linejoin: miter"/>
   </g>
   <g id="patch_39">
    <path d="M 198.588343 236.16 
L 201.6 236.16 
L 201.6 225.72 
L 198.588343 225.72 
z
" clip-path="url(#pd1e98d9574)" style="fill: url(#hc1e8665ae3); stroke: #2a3340; stroke-width: 0.5; stroke-linejoin: miter"/>
   </g>
   <g id="patch_40">
    <path d="M 313.92 236.16 
L 476.047543 236.16 
L 476.047543 225.72 
L 313.92 225.72 
z
" clip-path="url(#pd1e98d9574)" style="fill: #4a5763; stroke: #2a3340; stroke-width: 0.5; stroke-linejoin: miter"/>
   </g>
   <g id="patch_41">
    <path d="M 476.047543 236.16 
L 489.6 236.16 
L 489.6 225.72 
L 476.047543 225.72 
z
" clip-path="url(#pd1e98d9574)" style="fill: url(#hc1e8665ae3); stroke: #2a3340; stroke-width: 0.5; stroke-linejoin: miter"/>
   </g>
   <g id="patch_42">
    <path d="M 214.909525 227.52 
Q 257.759683 227.52 300.609841 227.52 
" clip-path="url(#pd1e98d9574)" style="fill: none; stroke: #2a3340; stroke-width: 1.1; stroke-linecap: round"/>
    <path d="M 218.509525 229.32 
L 214.909525 227.52 
L 218.509525 225.72 
z
" clip-path="url(#pd1e98d9574)" style="fill: #2a3340; stroke: #2a3340; stroke-width: 1.1; stroke-linecap: round"/>
    <path d="M 297.009841 225.72 
L 300.609841 227.52 
L 297.009841 229.32 
z
" clip-path="url(#pd1e98d9574)" style="fill: #2a3340; stroke: #2a3340; stroke-width: 1.1; stroke-linecap: round"/>
   </g>
   <g id="line2d_5">
    <path d="M 39.6 152.64 
" clip-path="url(#pd1e98d9574)" style="fill: none; stroke: #2a3340; stroke-width: 1.5; stroke-linecap: square"/>
    <defs>
     <path id="mdcd8928a01" d="M 0 1.25 
C 0.331504 1.25 0.649475 1.118292 0.883883 0.883883 
C 1.118292 0.649475 1.25 0.331504 1.25 0 
C 1.25 -0.331504 1.118292 -0.649475 0.883883 -0.883883 
C 0.649475 -1.118292 0.331504 -1.25 0 -1.25 
C -0.331504 -1.25 -0.649475 -1.118292 -0.883883 -0.883883 
C -1.118292 -0.649475 -1.25 -0.331504 -1.25 0 
C -1.25 0.331504 -1.118292 0.649475 -0.883883 0.883883 
C -0.649475 1.118292 -0.331504 1.25 0 1.25 
z
" style="stroke: #2a3340"/>
    </defs>
    <g clip-path="url(#pd1e98d9574)">
     <use xlink:href="#mdcd8928a01" x="39.6" y="152.64" style="fill: #2a3340; stroke: #2a3340"/>
    </g>
   </g>
   <g id="text_22">
    <text style="font-weight: 700; font-size: 8px; font-family: 'Helvetica', 'Arial', 'Liberation Sans', 'DejaVu Sans', sans-serif; text-anchor: start; fill: #2a3340" x="25.92" y="216.26875" transform="rotate(-0 25.92 216.26875)">token path: 0.435 J / answer</text>
   </g>
   <g id="text_23">
    <!-- radio $\lesssim$0.01 J -->
    <g style="fill: #2a3340" transform="translate(149.92 216.26875)">
     <text>
      <tspan x="0" y="-0.203125" style="font-size: 8px; font-family: 'Liberation Sans'; fill: #2a3340">r</tspan>
      <tspan x="2.664062" y="-0.203125" style="font-size: 8px; font-family: 'Liberation Sans'; fill: #2a3340">a</tspan>
      <tspan x="7.113281" y="-0.203125" style="font-size: 8px; font-family: 'Liberation Sans'; fill: #2a3340">d</tspan>
      <tspan x="11.5625" y="-0.203125" style="font-size: 8px; font-family: 'Liberation Sans'; fill: #2a3340">i</tspan>
      <tspan x="13.339844" y="-0.203125" style="font-size: 8px; font-family: 'Liberation Sans'; fill: #2a3340">o</tspan>
      <tspan x="17.789062" y="-0.203125" style="font-size: 8px; font-family: 'Liberation Sans'; fill: #2a3340"> </tspan>
      <tspan x="29.832031" y="-0.203125" style="font-size: 8px; font-family: 'Liberation Sans'; fill: #2a3340">0</tspan>
      <tspan x="34.28125" y="-0.203125" style="font-size: 8px; font-family: 'Liberation Sans'; fill: #2a3340">.</tspan>
      <tspan x="36.503906" y="-0.203125" style="font-size: 8px; font-family: 'Liberation Sans'; fill: #2a3340">0</tspan>
      <tspan x="40.953125" y="-0.203125" style="font-size: 8px; font-family: 'Liberation Sans'; fill: #2a3340">1</tspan>
      <tspan x="45.402344" y="-0.203125" style="font-size: 8px; font-family: 'Liberation Sans'; fill: #2a3340"> </tspan>
      <tspan x="47.625" y="-0.203125" style="font-size: 8px; font-family: 'Liberation Sans'; fill: #2a3340">J</tspan>
      <tspan x="21.570312" y="-0.203125" style="font-size: 8px; font-family: 'DejaVu Sans'; fill: #2a3340">≲</tspan>
     </text>
    </g>
   </g>
   <g id="text_24">
    <text style="font-size: 8px; font-family: 'Helvetica', 'Arial', 'Liberation Sans', 'DejaVu Sans', sans-serif; text-anchor: start; fill: #ffffff" x="28.8" y="233.00875" transform="rotate(-0 28.8 233.00875)">detector compute 0.43 J</text>
   </g>
   <g id="text_25">
    <!-- image path: $\approx$33 J / answer -->
    <g style="fill: #2a3340" transform="translate(313.92 216.24)">
     <text>
      <tspan x="0" y="-0.203125" style="font-weight: 700; font-size: 8px; font-family: 'Liberation Sans'; fill: #2a3340">i</tspan>
      <tspan x="2.222656" y="-0.203125" style="font-weight: 700; font-size: 8px; font-family: 'Liberation Sans'; fill: #2a3340">m</tspan>
      <tspan x="9.335938" y="-0.203125" style="font-weight: 700; font-size: 8px; font-family: 'Liberation Sans'; fill: #2a3340">a</tspan>
      <tspan x="13.785156" y="-0.203125" style="font-weight: 700; font-size: 8px; font-family: 'Liberation Sans'; fill: #2a3340">g</tspan>
      <tspan x="18.671875" y="-0.203125" style="font-weight: 700; font-size: 8px; font-family: 'Liberation Sans'; fill: #2a3340">e</tspan>
      <tspan x="23.121094" y="-0.203125" style="font-weight: 700; font-size: 8px; font-family: 'Liberation Sans'; fill: #2a3340"> </tspan>
      <tspan x="25.34375" y="-0.203125" style="font-weight: 700; font-size: 8px; font-family: 'Liberation Sans'; fill: #2a3340">p</tspan>
      <tspan x="30.230469" y="-0.203125" style="font-weight: 700; font-size: 8px; font-family: 'Liberation Sans'; fill: #2a3340">a</tspan>
      <tspan x="34.679688" y="-0.203125" style="font-weight: 700; font-size: 8px; font-family: 'Liberation Sans'; fill: #2a3340">t</tspan>
      <tspan x="37.34375" y="-0.203125" style="font-weight: 700; font-size: 8px; font-family: 'Liberation Sans'; fill: #2a3340">h</tspan>
      <tspan x="42.230469" y="-0.203125" style="font-weight: 700; font-size: 8px; font-family: 'Liberation Sans'; fill: #2a3340">:</tspan>
      <tspan x="44.894531" y="-0.203125" style="font-weight: 700; font-size: 8px; font-family: 'Liberation Sans'; fill: #2a3340"> </tspan>
      <tspan x="56.9375" y="-0.203125" style="font-weight: 700; font-size: 8px; font-family: 'Liberation Sans'; fill: #2a3340">3</tspan>
      <tspan x="61.386719" y="-0.203125" style="font-weight: 700; font-size: 8px; font-family: 'Liberation Sans'; fill: #2a3340">3</tspan>
      <tspan x="65.835938" y="-0.203125" style="font-weight: 700; font-size: 8px; font-family: 'Liberation Sans'; fill: #2a3340"> </tspan>
      <tspan x="68.058594" y="-0.203125" style="font-weight: 700; font-size: 8px; font-family: 'Liberation Sans'; fill: #2a3340">J</tspan>
      <tspan x="72.507812" y="-0.203125" style="font-weight: 700; font-size: 8px; font-family: 'Liberation Sans'; fill: #2a3340"> </tspan>
      <tspan x="74.730469" y="-0.203125" style="font-weight: 700; font-size: 8px; font-family: 'Liberation Sans'; fill: #2a3340">/</tspan>
      <tspan x="76.953125" y="-0.203125" style="font-weight: 700; font-size: 8px; font-family: 'Liberation Sans'; fill: #2a3340"> </tspan>
      <tspan x="79.175781" y="-0.203125" style="font-weight: 700; font-size: 8px; font-family: 'Liberation Sans'; fill: #2a3340">a</tspan>
      <tspan x="83.625" y="-0.203125" style="font-weight: 700; font-size: 8px; font-family: 'Liberation Sans'; fill: #2a3340">n</tspan>
      <tspan x="88.511719" y="-0.203125" style="font-weight: 700; font-size: 8px; font-family: 'Liberation Sans'; fill: #2a3340">s</tspan>
      <tspan x="92.960938" y="-0.203125" style="font-weight: 700; font-size: 8px; font-family: 'Liberation Sans'; fill: #2a3340">w</tspan>
      <tspan x="99.183594" y="-0.203125" style="font-weight: 700; font-size: 8px; font-family: 'Liberation Sans'; fill: #2a3340">e</tspan>
      <tspan x="103.632812" y="-0.203125" style="font-weight: 700; font-size: 8px; font-family: 'Liberation Sans'; fill: #2a3340">r</tspan>
      <tspan x="48.675781" y="-0.203125" style="font-size: 8px; font-family: 'DejaVu Sans'; fill: #2a3340">≈</tspan>
     </text>
    </g>
   </g>
   <g id="text_26">
    <!-- radio $\leq$2.7 J -->
    <g style="fill: #2a3340" transform="translate(442.4 216.26875)">
     <text>
      <tspan x="0" y="-0.203125" style="font-size: 8px; font-family: 'Liberation Sans'; fill: #2a3340">r</tspan>
      <tspan x="2.664062" y="-0.203125" style="font-size: 8px; font-family: 'Liberation Sans'; fill: #2a3340">a</tspan>
      <tspan x="7.113281" y="-0.203125" style="font-size: 8px; font-family: 'Liberation Sans'; fill: #2a3340">d</tspan>
      <tspan x="11.5625" y="-0.203125" style="font-size: 8px; font-family: 'Liberation Sans'; fill: #2a3340">i</tspan>
      <tspan x="13.339844" y="-0.203125" style="font-size: 8px; font-family: 'Liberation Sans'; fill: #2a3340">o</tspan>
      <tspan x="17.789062" y="-0.203125" style="font-size: 8px; font-family: 'Liberation Sans'; fill: #2a3340"> </tspan>
      <tspan x="29.832031" y="-0.203125" style="font-size: 8px; font-family: 'Liberation Sans'; fill: #2a3340">2</tspan>
      <tspan x="34.28125" y="-0.203125" style="font-size: 8px; font-family: 'Liberation Sans'; fill: #2a3340">.</tspan>
      <tspan x="36.503906" y="-0.203125" style="font-size: 8px; font-family: 'Liberation Sans'; fill: #2a3340">7</tspan>
      <tspan x="40.953125" y="-0.203125" style="font-size: 8px; font-family: 'Liberation Sans'; fill: #2a3340"> </tspan>
      <tspan x="43.175781" y="-0.203125" style="font-size: 8px; font-family: 'Liberation Sans'; fill: #2a3340">J</tspan>
      <tspan x="21.570312" y="-0.203125" style="font-size: 8px; font-family: 'DejaVu Sans'; fill: #2a3340">≤</tspan>
     </text>
    </g>
   </g>
   <g id="text_27">
    <text style="font-size: 8px; font-family: 'Helvetica', 'Arial', 'Liberation Sans', 'DejaVu Sans', sans-serif; text-anchor: start; fill: #ffffff" x="316.8" y="233.00875" transform="rotate(-0 316.8 233.00875)">VLM compute 32.3 J</text>
   </g>
   <g id="text_28">
    <!-- $\approx$75$\times$ -->
    <g style="fill: #2a3340" transform="translate(244.245 221.79625)">
     <text>
      <tspan x="1.656006" y="-0.8125" style="font-size: 8.5px; font-family: 'DejaVu Sans'; fill: #2a3340">≈</tspan>
      <tspan x="19.888672" y="-0.8125" style="font-size: 8.5px; font-family: 'DejaVu Sans'; fill: #2a3340">×</tspan>
      <tspan x="10.434082" y="-0.8125" style="font-weight: 700; font-size: 8.5px; font-family: 'Liberation Sans'; fill: #2a3340">7</tspan>
      <tspan x="15.161377" y="-0.8125" style="font-weight: 700; font-size: 8.5px; font-family: 'Liberation Sans'; fill: #2a3340">5</tspan>
     </text>
    </g>
   </g>
  </g>
 </g>
 <defs>
  <clipPath id="pd1e98d9574">
   <rect x="0" y="0" width="515.52" height="246.24"/>
  </clipPath>
 </defs>
 <defs>
  <pattern id="hc1e8665ae3" patternUnits="userSpaceOnUse" x="0" y="0" width="72" height="72">
   <rect x="0" y="0" width="73" height="73" fill="#e8c268"/>
   <path d="M -36 36 
L 36 -36 
M -33 39 
L 39 -33 
M -30 42 
L 42 -30 
M -27 45 
L 45 -27 
M -24 48 
L 48 -24 
M -21 51 
L 51 -21 
M -18 54 
L 54 -18 
M -15 57 
L 57 -15 
M -12 60 
L 60 -12 
M -9 63 
L 63 -9 
M -6 66 
L 66 -6 
M -3 69 
L 69 -3 
M 0 72 
L 72 0 
M 3 75 
L 75 3 
M 6 78 
L 78 6 
M 9 81 
L 81 9 
M 12 84 
L 84 12 
M 15 87 
L 87 15 
M 18 90 
L 90 18 
M 21 93 
L 93 21 
M 24 96 
L 96 24 
M 27 99 
L 99 27 
M 30 102 
L 102 30 
M 33 105 
L 105 33 
M 36 108 
L 108 36 
" style="fill: #2a3340; stroke: #2a3340; stroke-width: 0.6; stroke-linecap: butt; stroke-linejoin: miter"/>
  </pattern>
 </defs>
</svg>
