<?xml version="1.0" encoding="utf-8" standalone="no"?>
<!DOCTYPE svg PUBLIC "-//W3C//DTD SVG 1.1//EN"
  "http://www.w3.org/Graphics/SVG/1.1/DTD/svg11.dtd">
<svg xmlns:xlink="http://www.w3.org/1999/xlink" width="352.8pt" height="198pt" viewBox="0 0 352.8 198" xmlns="http://www.w3.org/2000/svg" version="1.1">
 <metadata>
  <rdf:RDF xmlns:dc="http://purl.org/dc/elements/1.1/" xmlns:cc="http://creativecommons.org/ns#" xmlns:rdf="http://www.w3.org/1999/02/22-rdf-syntax-ns#">
   <cc:Work>
    <dc:type rdf:resource="http://purl.org/dc/dcmitype/StillImage"/>
    <dc:date>2026-07-11T18:00:17.190530</dc:date>
    <dc:format>image/svg+xml</dc:format>
    <dc:creator>
     <cc:Agent>
      <dc:title>Matplotlib v3.10.7, https://matplotlib.org/</dc:title>
     </cc:Agent>
    </dc:creator>
   </cc:Work>
  </rdf:RDF>
 </metadata>
 <defs>
  <style type="text/css">*{stroke-linejoin: round; stroke-linecap: butt}</style>
 </defs>
 <g id="figure_1">
  <g id="patch_1">
   <path d="M 0 198 
L 352.8 198 
L 352.8 0 
L 0 0 
z
" style="fill: #ffffff"/>
  </g>
  <g id="axes_1">
   <g id="patch_2">
    <path d="M 35.9525 167.3525 
L 344.16 167.3525 
L 344.16 34.16125 
L 35.9525 34.16125 
z
" style="fill: #ffffff"/>
   </g>
   <g id="matplotlib.axis_1">
    <g id="xtick_1">
     <g id="line2d_1">
      <defs>
       <path id="m35fa12599a" d="M 0 0 
L 0 3.5 
" style="stroke: #000000; stroke-width: 0.8"/>
      </defs>
      <g>
       <use xlink:href="#m35fa12599a" x="72.329932" y="167.3525" style="stroke: #000000; stroke-width: 0.8"/>
      </g>
     </g>
     <g id="text_1">
      <text style="font-size: 7.5px; font-family: 'Times New Roman', 'Nimbus Roman', 'Liberation Serif', 'STIXGeneral', 'DejaVu Serif', serif; text-anchor: middle" x="72.329932" y="179.474766" transform="rotate(-0 72.329932 179.474766)">presence</text>
     </g>
    </g>
    <g id="xtick_2">
     <g id="line2d_2">
      <g>
       <use xlink:href="#m35fa12599a" x="131.193091" y="167.3525" style="stroke: #000000; stroke-width: 0.8"/>
      </g>
     </g>
     <g id="text_2">
      <text style="font-size: 7.5px; font-family: 'Times New Roman', 'Nimbus Roman', 'Liberation Serif', 'STIXGeneral', 'DejaVu Serif', serif; text-anchor: middle" x="131.193091" y="179.474766" transform="rotate(-0 131.193091 179.474766)">counting</text>
     </g>
    </g>
    <g id="xtick_3">
     <g id="line2d_3">
      <g>
       <use xlink:href="#m35fa12599a" x="190.05625" y="167.3525" style="stroke: #000000; stroke-width: 0.8"/>
      </g>
     </g>
     <g id="text_3">
      <text style="font-size: 7.5px; font-family: 'Times New Roman', 'Nimbus Roman', 'Liberation Serif', 'STIXGeneral', 'DejaVu Serif', serif; text-anchor: middle" x="190.05625" y="179.474766" transform="rotate(-0 190.05625 179.474766)">comparison</text>
     </g>
    </g>
    <g id="xtick_4">
     <g id="line2d_4">
      <g>
       <use xlink:href="#m35fa12599a" x="248.919409" y="167.3525" style="stroke: #000000; stroke-width: 0.8"/>
      </g>
     </g>
     <g id="text_4">
      <text style="font-size: 7.5px; font-family: 'Times New Roman', 'Nimbus Roman', 'Liberation Serif', 'STIXGeneral', 'DejaVu Serif', serif; text-anchor: middle" x="248.919409" y="179.474766" transform="rotate(-0 248.919409 179.474766)">co-presence</text>
     </g>
    </g>
    <g id="xtick_5">
     <g id="line2d_5">
      <g>
       <use xlink:href="#m35fa12599a" x="307.782568" y="167.3525" style="stroke: #000000; stroke-width: 0.8"/>
      </g>
     </g>
     <g id="text_5">
      <text style="font-size: 7.5px; font-family: 'Times New Roman', 'Nimbus Roman', 'Liberation Serif', 'STIXGeneral', 'DejaVu Serif', serif" transform="translate(293.824951 179.474766)">threshold</text>
      <text style="font-size: 7.5px; font-family: 'Times New Roman', 'Nimbus Roman', 'Liberation Serif', 'STIXGeneral', 'DejaVu Serif', serif" transform="translate(291.121435 187.249219)">(boundary)</text>
     </g>
    </g>
   </g>
   <g id="matplotlib.axis_2">
    <g id="ytick_1">
     <g id="line2d_6">
      <path d="M 35.9525 167.3525 
L 344.16 167.3525 
" clip-path="url(#pe1d491a012)" style="fill: none; stroke: #b0b0b0; stroke-opacity: 0.25; stroke-width: 0.4; stroke-linecap: square"/>
     </g>
     <g id="line2d_7">
      <defs>
       <path id="m83f43a3d77" d="M 0 0 
L -3.5 0 
" style="stroke: #000000; stroke-width: 0.8"/>
      </defs>
      <g>
       <use xlink:href="#m83f43a3d77" x="35.9525" y="167.3525" style="stroke: #000000; stroke-width: 0.8"/>
      </g>
     </g>
     <g id="text_6">
      <text style="font-size: 7.5px; font-family: 'Times New Roman', 'Nimbus Roman', 'Liberation Serif', 'STIXGeneral', 'DejaVu Serif', serif; text-anchor: end" x="28.9525" y="169.913633" transform="rotate(-0 28.9525 169.913633)">0.0</text>
     </g>
    </g>
    <g id="ytick_2">
     <g id="line2d_8">
      <path d="M 35.9525 140.71425 
L 344.16 140.71425 
" clip-path="url(#pe1d491a012)" style="fill: none; stroke: #b0b0b0; stroke-opacity: 0.25; stroke-width: 0.4; stroke-linecap: square"/>
     </g>
     <g id="line2d_9">
      <g>
       <use xlink:href="#m83f43a3d77" x="35.9525" y="140.71425" style="stroke: #000000; stroke-width: 0.8"/>
      </g>
     </g>
     <g id="text_7">
      <text style="font-size: 7.5px; font-family: 'Times New Roman', 'Nimbus Roman', 'Liberation Serif', 'STIXGeneral', 'DejaVu Serif', serif; text-anchor: end" x="28.9525" y="143.275383" transform="rotate(-0 28.9525 143.275383)">0.2</text>
     </g>
    </g>
    <g id="ytick_3">
     <g id="line2d_10">
      <path d="M 35.9525 114.076 
L 344.16 114.076 
" clip-path="url(#pe1d491a012)" style="fill: none; stroke: #b0b0b0; stroke-opacity: 0.25; stroke-width: 0.4; stroke-linecap: square"/>
     </g>
     <g id="line2d_11">
      <g>
       <use xlink:href="#m83f43a3d77" x="35.9525" y="114.076" style="stroke: #000000; stroke-width: 0.8"/>
      </g>
     </g>
     <g id="text_8">
      <text style="font-size: 7.5px; font-family: 'Times New Roman', 'Nimbus Roman', 'Liberation Serif', 'STIXGeneral', 'DejaVu Serif', serif; text-anchor: end" x="28.9525" y="116.637133" transform="rotate(-0 28.9525 116.637133)">0.4</text>
     </g>
    </g>
    <g id="ytick_4">
     <g id="line2d_12">
      <path d="M 35.9525 87.43775 
L 344.16 87.43775 
" clip-path="url(#pe1d491a012)" style="fill: none; stroke: #b0b0b0; stroke-opacity: 0.25; stroke-width: 0.4; stroke-linecap: square"/>
     </g>
     <g id="line2d_13">
      <g>
       <use xlink:href="#m83f43a3d77" x="35.9525" y="87.43775" style="stroke: #000000; stroke-width: 0.8"/>
      </g>
     </g>
     <g id="text_9">
      <text style="font-size: 7.5px; font-family: 'Times New Roman', 'Nimbus Roman', 'Liberation Serif', 'STIXGeneral', 'DejaVu Serif', serif; text-anchor: end" x="28.9525" y="89.998883" transform="rotate(-0 28.9525 89.998883)">0.6</text>
     </g>
    </g>
    <g id="ytick_5">
     <g id="line2d_14">
      <path d="M 35.9525 60.7995 
L 344.16 60.7995 
" clip-path="url(#pe1d491a012)" style="fill: none; stroke: #b0b0b0; stroke-opacity: 0.25; stroke-width: 0.4; stroke-linecap: square"/>
     </g>
     <g id="line2d_15">
      <g>
       <use xlink:href="#m83f43a3d77" x="35.9525" y="60.7995" style="stroke: #000000; stroke-width: 0.8"/>
      </g>
     </g>
     <g id="text_10">
      <text style="font-size: 7.5px; font-family: 'Times New Roman', 'Nimbus Roman', 'Liberation Serif', 'STIXGeneral', 'DejaVu Serif', serif; text-anchor: end" x="28.9525" y="63.360633" transform="rotate(-0 28.9525 63.360633)">0.8</text>
     </g>
    </g>
    <g id="ytick_6">
     <g id="line2d_16">
      <path d="M 35.9525 34.16125 
L 344.16 34.16125 
" clip-path="url(#pe1d491a012)" style="fill: none; stroke: #b0b0b0; stroke-opacity: 0.25; stroke-width: 0.4; stroke-linecap: square"/>
     </g>
     <g id="line2d_17">
      <g>
       <use xlink:href="#m83f43a3d77" x="35.9525" y="34.16125" style="stroke: #000000; stroke-width: 0.8"/>
      </g>
     </g>
     <g id="text_11">
      <text style="font-size: 7.5px; font-family: 'Times New Roman', 'Nimbus Roman', 'Liberation Serif', 'STIXGeneral', 'DejaVu Serif', serif; text-anchor: end" x="28.9525" y="36.722383" transform="rotate(-0 28.9525 36.722383)">1.0</text>
     </g>
    </g>
    <g id="text_12">
     <text style="font-size: 8px; font-family: 'Times New Roman', 'Nimbus Roman', 'Liberation Serif', 'STIXGeneral', 'DejaVu Serif', serif; text-anchor: middle" x="13.83375" y="100.756875" transform="rotate(-90 13.83375 100.756875)">accuracy (Rician, test)</text>
    </g>
   </g>
   <g id="patch_3">
    <path d="M 35.9525 167.3525 
L 35.9525 34.16125 
" style="fill: none; stroke: #000000; stroke-width: 0.6; stroke-linejoin: miter; stroke-linecap: square"/>
   </g>
   <g id="patch_4">
    <path d="M 35.9525 167.3525 
L 344.16 167.3525 
" style="fill: none; stroke: #000000; stroke-width: 0.6; stroke-linejoin: miter; stroke-linecap: square"/>
   </g>
   <g id="patch_5">
    <path d="M 49.961932 167.3525 
L 61.145932 167.3525 
L 61.145932 77.048833 
L 49.961932 77.048833 
z
" clip-path="url(#pe1d491a012)" style="fill: url(#h2bdb3641f9); stroke: #ffffff; stroke-width: 0.3; stroke-linejoin: miter"/>
   </g>
   <g id="patch_6">
    <path d="M 61.145932 167.3525 
L 72.329932 167.3525 
L 72.329932 65.993959 
L 61.145932 65.993959 
z
" clip-path="url(#pe1d491a012)" style="fill: #ffb454"/>
   </g>
   <g id="patch_7">
    <path d="M 72.329932 167.3525 
L 83.513932 167.3525 
L 83.513932 71.294971 
L 72.329932 71.294971 
z
" clip-path="url(#pe1d491a012)" style="fill: #e07b39"/>
   </g>
   <g id="patch_8">
    <path d="M 83.513932 167.3525 
L 94.697933 167.3525 
L 94.697933 70.868759 
L 83.513932 70.868759 
z
" clip-path="url(#pe1d491a012)" style="fill: #9c5f28"/>
   </g>
   <g id="text_13">
    <!-- $\to$ image -->
    <g style="fill: #8a6d3b" transform="translate(59.622432 61.993959)">
     <text>
      <tspan x="0.938599" y="-0.203125" style="font-size: 6.5px; font-family: 'STIXGeneral'; fill: #8a6d3b">→</tspan>
      <tspan x="7.896194" y="-0.203125" style="font-size: 6.5px; font-family: 'Nimbus Roman'; fill: #8a6d3b"> </tspan>
      <tspan x="9.521194" y="-0.203125" style="font-size: 6.5px; font-family: 'Nimbus Roman'; fill: #8a6d3b">i</tspan>
      <tspan x="11.328186" y="-0.203125" style="font-size: 6.5px; font-family: 'Nimbus Roman'; fill: #8a6d3b">m</tspan>
      <tspan x="16.385178" y="-0.203125" style="font-size: 6.5px; font-family: 'Nimbus Roman'; fill: #8a6d3b">a</tspan>
      <tspan x="19.271179" y="-0.203125" style="font-size: 6.5px; font-family: 'Nimbus Roman'; fill: #8a6d3b">g</tspan>
      <tspan x="22.521179" y="-0.203125" style="font-size: 6.5px; font-family: 'Nimbus Roman'; fill: #8a6d3b">e</tspan>
     </text>
    </g>
   </g>
   <g id="patch_9">
    <path d="M 108.825091 167.3525 
L 120.009091 167.3525 
L 120.009091 107.389799 
L 108.825091 107.389799 
z
" clip-path="url(#pe1d491a012)" style="fill: url(#h2bdb3641f9); stroke: #ffffff; stroke-width: 0.3; stroke-linejoin: miter"/>
   </g>
   <g id="patch_10">
    <path d="M 120.009091 167.3525 
L 131.193091 167.3525 
L 131.193091 130.005674 
L 120.009091 130.005674 
z
" clip-path="url(#pe1d491a012)" style="fill: #ffb454"/>
   </g>
   <g id="patch_11">
    <path d="M 131.193091 167.3525 
L 142.377091 167.3525 
L 142.377091 117.405781 
L 131.193091 117.405781 
z
" clip-path="url(#pe1d491a012)" style="fill: #e07b39"/>
   </g>
   <g id="patch_12">
    <path d="M 142.377091 167.3525 
L 153.561091 167.3525 
L 153.561091 115.274721 
L 142.377091 115.274721 
z
" clip-path="url(#pe1d491a012)" style="fill: #9c5f28"/>
   </g>
   <g id="text_14">
    <!-- $\to$ token -->
    <g style="fill: #1f7a54" transform="translate(119.200591 103.389799)">
     <text>
      <tspan x="0.938599" y="-0.203125" style="font-size: 6.5px; font-family: 'STIXGeneral'; fill: #1f7a54">→</tspan>
      <tspan x="7.896194" y="-0.203125" style="font-size: 6.5px; font-family: 'Nimbus Roman'; fill: #1f7a54"> </tspan>
      <tspan x="9.521194" y="-0.203125" style="font-size: 6.5px; font-family: 'Nimbus Roman'; fill: #1f7a54">t</tspan>
      <tspan x="11.328186" y="-0.203125" style="font-size: 6.5px; font-family: 'Nimbus Roman'; fill: #1f7a54">o</tspan>
      <tspan x="14.578186" y="-0.203125" style="font-size: 6.5px; font-family: 'Nimbus Roman'; fill: #1f7a54">k</tspan>
      <tspan x="17.828186" y="-0.203125" style="font-size: 6.5px; font-family: 'Nimbus Roman'; fill: #1f7a54">e</tspan>
      <tspan x="20.714188" y="-0.203125" style="font-size: 6.5px; font-family: 'Nimbus Roman'; fill: #1f7a54">n</tspan>
     </text>
    </g>
   </g>
   <g id="patch_13">
    <path d="M 167.68825 167.3525 
L 178.87225 167.3525 
L 178.87225 54.646064 
L 167.68825 54.646064 
z
" clip-path="url(#pe1d491a012)" style="fill: url(#h2bdb3641f9); stroke: #ffffff; stroke-width: 0.3; stroke-linejoin: miter"/>
   </g>
   <g id="patch_14">
    <path d="M 178.87225 167.3525 
L 190.05625 167.3525 
L 190.05625 72.800032 
L 178.87225 72.800032 
z
" clip-path="url(#pe1d491a012)" style="fill: #ffb454"/>
   </g>
   <g id="patch_15">
    <path d="M 190.05625 167.3525 
L 201.24025 167.3525 
L 201.24025 62.544305 
L 190.05625 62.544305 
z
" clip-path="url(#pe1d491a012)" style="fill: #e07b39"/>
   </g>
   <g id="patch_16">
    <path d="M 201.24025 167.3525 
L 212.42425 167.3525 
L 212.42425 87.730771 
L 201.24025 87.730771 
z
" clip-path="url(#pe1d491a012)" style="fill: #9c5f28"/>
   </g>
   <g id="text_15">
    <!-- $\to$ token -->
    <g style="fill: #1f7a54" transform="translate(178.06375 50.646064)">
     <text>
      <tspan x="0.938599" y="-0.203125" style="font-size: 6.5px; font-family: 'STIXGeneral'; fill: #1f7a54">→</tspan>
      <tspan x="7.896194" y="-0.203125" style="font-size: 6.5px; font-family: 'Nimbus Roman'; fill: #1f7a54"> </tspan>
      <tspan x="9.521194" y="-0.203125" style="font-size: 6.5px; font-family: 'Nimbus Roman'; fill: #1f7a54">t</tspan>
      <tspan x="11.328186" y="-0.203125" style="font-size: 6.5px; font-family: 'Nimbus Roman'; fill: #1f7a54">o</tspan>
      <tspan x="14.578186" y="-0.203125" style="font-size: 6.5px; font-family: 'Nimbus Roman'; fill: #1f7a54">k</tspan>
      <tspan x="17.828186" y="-0.203125" style="font-size: 6.5px; font-family: 'Nimbus Roman'; fill: #1f7a54">e</tspan>
      <tspan x="20.714188" y="-0.203125" style="font-size: 6.5px; font-family: 'Nimbus Roman'; fill: #1f7a54">n</tspan>
     </text>
    </g>
   </g>
   <g id="patch_17">
    <path d="M 226.551409 167.3525 
L 237.735409 167.3525 
L 237.735409 78.980106 
L 226.551409 78.980106 
z
" clip-path="url(#pe1d491a012)" style="fill: url(#h2bdb3641f9); stroke: #ffffff; stroke-width: 0.3; stroke-linejoin: miter"/>
   </g>
   <g id="patch_18">
    <path d="M 237.735409 167.3525 
L 248.919409 167.3525 
L 248.919409 92.858634 
L 237.735409 92.858634 
z
" clip-path="url(#pe1d491a012)" style="fill: #ffb454"/>
   </g>
   <g id="patch_19">
    <path d="M 248.919409 167.3525 
L 260.103409 167.3525 
L 260.103409 93.711058 
L 248.919409 93.711058 
z
" clip-path="url(#pe1d491a012)" style="fill: #e07b39"/>
   </g>
   <g id="patch_20">
    <path d="M 260.103409 167.3525 
L 271.287409 167.3525 
L 271.287409 96.920967 
L 260.103409 96.920967 
z
" clip-path="url(#pe1d491a012)" style="fill: #9c5f28"/>
   </g>
   <g id="text_16">
    <!-- $\to$ token -->
    <g style="fill: #1f7a54" transform="translate(236.926909 74.980106)">
     <text>
      <tspan x="0.938599" y="-0.203125" style="font-size: 6.5px; font-family: 'STIXGeneral'; fill: #1f7a54">→</tspan>
      <tspan x="7.896194" y="-0.203125" style="font-size: 6.5px; font-family: 'Nimbus Roman'; fill: #1f7a54"> </tspan>
      <tspan x="9.521194" y="-0.203125" style="font-size: 6.5px; font-family: 'Nimbus Roman'; fill: #1f7a54">t</tspan>
      <tspan x="11.328186" y="-0.203125" style="font-size: 6.5px; font-family: 'Nimbus Roman'; fill: #1f7a54">o</tspan>
      <tspan x="14.578186" y="-0.203125" style="font-size: 6.5px; font-family: 'Nimbus Roman'; fill: #1f7a54">k</tspan>
      <tspan x="17.828186" y="-0.203125" style="font-size: 6.5px; font-family: 'Nimbus Roman'; fill: #1f7a54">e</tspan>
      <tspan x="20.714188" y="-0.203125" style="font-size: 6.5px; font-family: 'Nimbus Roman'; fill: #1f7a54">n</tspan>
     </text>
    </g>
   </g>
   <g id="patch_21">
    <path d="M 285.414567 167.3525 
L 296.598568 167.3525 
L 296.598568 87.943877 
L 285.414567 87.943877 
z
" clip-path="url(#pe1d491a012)" style="fill: url(#h2bdb3641f9); stroke: #ffffff; stroke-width: 0.3; stroke-linejoin: miter"/>
   </g>
   <g id="patch_22">
    <path d="M 296.598568 167.3525 
L 307.782568 167.3525 
L 307.782568 86.025923 
L 296.598568 86.025923 
z
" clip-path="url(#pe1d491a012)" style="fill: #ffb454"/>
   </g>
   <g id="patch_23">
    <path d="M 307.782568 167.3525 
L 318.966568 167.3525 
L 318.966568 91.793104 
L 307.782568 91.793104 
z
" clip-path="url(#pe1d491a012)" style="fill: #e07b39"/>
   </g>
   <g id="patch_24">
    <path d="M 318.966568 167.3525 
L 330.150568 167.3525 
L 330.150568 84.534181 
L 318.966568 84.534181 
z
" clip-path="url(#pe1d491a012)" style="fill: #9c5f28"/>
   </g>
   <g id="text_17">
    <text style="font-size: 6.5px; font-family: 'Times New Roman', 'Nimbus Roman', 'Liberation Serif', 'STIXGeneral', 'DejaVu Serif', serif; text-anchor: middle; fill: #595959" x="307.782568" y="80.534181" transform="rotate(-0 307.782568 80.534181)">boundary</text>
   </g>
   <g id="legend_1">
    <g id="patch_25">
     <path d="M 70.253984 17.809688 
L 78.653984 17.809688 
L 78.653984 12.909688 
L 70.253984 12.909688 
z
" style="fill: url(#h2bdb3641f9); stroke: #ffffff; stroke-linejoin: miter"/>
    </g>
    <g id="text_18">
     <text style="font-size: 7px; font-family: 'Times New Roman', 'Nimbus Roman', 'Liberation Serif', 'STIXGeneral', 'DejaVu Serif', serif; text-anchor: start" x="84.253984" y="17.809688" transform="rotate(-0 84.253984 17.809688)">fixed token (VLM-agnostic symbolic decoder)</text>
    </g>
    <g id="patch_26">
     <path d="M 70.253984 26.335469 
L 78.653984 26.335469 
L 78.653984 21.435469 
L 70.253984 21.435469 
z
" style="fill: #ffb454"/>
    </g>
    <g id="text_19">
     <text style="font-size: 7px; font-family: 'Times New Roman', 'Nimbus Roman', 'Liberation Serif', 'STIXGeneral', 'DejaVu Serif', serif; text-anchor: start" x="84.253984" y="26.335469" transform="rotate(-0 84.253984 26.335469)">image, Qwen2-VL-2B</text>
    </g>
    <g id="patch_27">
     <path d="M 221.196953 17.809688 
L 229.596953 17.809688 
L 229.596953 12.909688 
L 221.196953 12.909688 
z
" style="fill: #e07b39"/>
    </g>
    <g id="text_20">
     <text style="font-size: 7px; font-family: 'Times New Roman', 'Nimbus Roman', 'Liberation Serif', 'STIXGeneral', 'DejaVu Serif', serif; text-anchor: start" x="235.196953" y="17.809688" transform="rotate(-0 235.196953 17.809688)">image, Qwen2.5-VL-3B</text>
    </g>
    <g id="patch_28">
     <path d="M 221.196953 26.335469 
L 229.596953 26.335469 
L 229.596953 21.435469 
L 221.196953 21.435469 
z
" style="fill: #9c5f28"/>
    </g>
    <g id="text_21">
     <text style="font-size: 7px; font-family: 'Times New Roman', 'Nimbus Roman', 'Liberation Serif', 'STIXGeneral', 'DejaVu Serif', serif; text-anchor: start" x="235.196953" y="26.335469" transform="rotate(-0 235.196953 26.335469)">image, SmolVLM-Instruct</text>
    </g>
   </g>
  </g>
 </g>
 <defs>
  <clipPath id="pe1d491a012">
   <rect x="35.9525" y="34.16125" width="308.2075" height="133.19125"/>
  </clipPath>
 </defs>
 <defs>
  <pattern id="h2bdb3641f9" patternUnits="userSpaceOnUse" x="0" y="0" width="72" height="72">
   <rect x="0" y="0" width="73" height="73" fill="#5a6b7c"/>
   <path d="M -36 36 
L 36 -36 
M -32 40 
L 40 -32 
M -28 44 
L 44 -28 
M -24 48 
L 48 -24 
M -20 52 
L 52 -20 
M -16 56 
L 56 -16 
M -12 60 
L 60 -12 
M -8 64 
L 64 -8 
M -4 68 
L 68 -4 
M 0 72 
L 72 0 
M 4 76 
L 76 4 
M 8 80 
L 80 8 
M 12 84 
L 84 12 
M 16 88 
L 88 16 
M 20 92 
L 92 20 
M 24 96 
L 96 24 
M 28 100 
L 100 28 
M 32 104 
L 104 32 
M 36 108 
L 108 36 
" style="fill: #ffffff; stroke: #ffffff; stroke-width: 0.6; stroke-linecap: butt; stroke-linejoin: miter"/>
  </pattern>
 </defs>
</svg>
