<?xml version="1.0" encoding="utf-8" standalone="no"?>
<!DOCTYPE svg PUBLIC "-//W3C//DTD SVG 1.1//EN"
  "http://www.w3.org/Graphics/SVG/1.1/DTD/svg11.dtd">
<svg xmlns:xlink="http://www.w3.org/1999/xlink" width="352.8pt" height="198pt" viewBox="0 0 352.8 198" xmlns="http://www.w3.org/2000/svg" version="1.1">
 <metadata>
  <rdf:RDF xmlns:dc="http://purl.org/dc/elements/1.1/" xmlns:cc="http://creativecommons.org/ns#" xmlns:rdf="http://www.w3.org/1999/02/22-rdf-syntax-ns#">
   <cc:Work>
    <dc:type rdf:resource="http://purl.org/dc/dcmitype/StillImage"/>
    <dc:date>2026-07-11T18:23:08.421620</dc:date>
    <dc:format>image/svg+xml</dc:format>
    <dc:creator>
     <cc:Agent>
      <dc:title>Matplotlib v3.10.7, https://matplotlib.org/</dc:title>
     </cc:Agent>
    </dc:creator>
   </cc:Work>
  </rdf:RDF>
 </metadata>
 <defs>
  <style type="text/css">*{stroke-linejoin: round; stroke-linecap: butt}</style>
 </defs>
 <g id="figure_1">
  <g id="patch_1">
   <path d="M 0 198 
L 352.8 198 
L 352.8 0 
L 0 0 
z
" style="fill: #ffffff"/>
  </g>
  <g id="axes_1">
   <g id="patch_2">
    <path d="M 36.43625 166.583 
L 344.16 166.583 
L 344.16 34.465 
L 36.43625 34.465 
z
" style="fill: #ffffff"/>
   </g>
   <g id="matplotlib.axis_1">
    <g id="xtick_1">
     <g id="line2d_1">
      <defs>
       <path id="m76bcb86137" d="M 0 0 
L 0 3.5 
" style="stroke: #000000; stroke-width: 0.8"/>
      </defs>
      <g>
       <use xlink:href="#m76bcb86137" x="72.756586" y="166.583" style="stroke: #000000; stroke-width: 0.8"/>
      </g>
     </g>
     <g id="text_1">
      <text style="font-size: 7.5px; font-family: 'Times New Roman', 'Nimbus Roman', 'Liberation Serif', 'STIXGeneral', 'DejaVu Serif', serif; text-anchor: middle" x="72.756586" y="178.790813" transform="rotate(-0 72.756586 178.790813)">presence</text>
     </g>
    </g>
    <g id="xtick_2">
     <g id="line2d_2">
      <g>
       <use xlink:href="#m76bcb86137" x="131.527355" y="166.583" style="stroke: #000000; stroke-width: 0.8"/>
      </g>
     </g>
     <g id="text_2">
      <text style="font-size: 7.5px; font-family: 'Times New Roman', 'Nimbus Roman', 'Liberation Serif', 'STIXGeneral', 'DejaVu Serif', serif; text-anchor: middle" x="131.527355" y="178.790813" transform="rotate(-0 131.527355 178.790813)">counting</text>
     </g>
    </g>
    <g id="xtick_3">
     <g id="line2d_3">
      <g>
       <use xlink:href="#m76bcb86137" x="190.298125" y="166.583" style="stroke: #000000; stroke-width: 0.8"/>
      </g>
     </g>
     <g id="text_3">
      <text style="font-size: 7.5px; font-family: 'Times New Roman', 'Nimbus Roman', 'Liberation Serif', 'STIXGeneral', 'DejaVu Serif', serif; text-anchor: middle" x="190.298125" y="178.790813" transform="rotate(-0 190.298125 178.790813)">comparison</text>
     </g>
    </g>
    <g id="xtick_4">
     <g id="line2d_4">
      <g>
       <use xlink:href="#m76bcb86137" x="249.068895" y="166.583" style="stroke: #000000; stroke-width: 0.8"/>
      </g>
     </g>
     <g id="text_4">
      <text style="font-size: 7.5px; font-family: 'Times New Roman', 'Nimbus Roman', 'Liberation Serif', 'STIXGeneral', 'DejaVu Serif', serif; text-anchor: middle" x="249.068895" y="178.790813" transform="rotate(-0 249.068895 178.790813)">co-presence</text>
     </g>
    </g>
    <g id="xtick_5">
     <g id="line2d_5">
      <g>
       <use xlink:href="#m76bcb86137" x="307.839664" y="166.583" style="stroke: #000000; stroke-width: 0.8"/>
      </g>
     </g>
     <g id="text_5">
      <text style="font-size: 7.5px; font-family: 'Times New Roman', 'Nimbus Roman', 'Liberation Serif', 'STIXGeneral', 'DejaVu Serif', serif" transform="translate(293.883219 178.790813)">threshold</text>
      <text style="font-size: 7.5px; font-family: 'Times New Roman', 'Nimbus Roman', 'Liberation Serif', 'STIXGeneral', 'DejaVu Serif', serif" transform="translate(291.179117 186.644484)">(boundary)</text>
     </g>
    </g>
   </g>
   <g id="matplotlib.axis_2">
    <g id="ytick_1">
     <g id="line2d_6">
      <path d="M 36.43625 166.583 
L 344.16 166.583 
" clip-path="url(#p1ac833e138)" style="fill: none; stroke: #b0b0b0; stroke-opacity: 0.25; stroke-width: 0.4; stroke-linecap: square"/>
     </g>
     <g id="line2d_7">
      <defs>
       <path id="mbb9144e6e7" d="M 0 0 
L -3.5 0 
" style="stroke: #000000; stroke-width: 0.8"/>
      </defs>
      <g>
       <use xlink:href="#mbb9144e6e7" x="36.43625" y="166.583" style="stroke: #000000; stroke-width: 0.8"/>
      </g>
     </g>
     <g id="text_6">
      <text style="font-size: 7.5px; font-family: 'Times New Roman', 'Nimbus Roman', 'Liberation Serif', 'STIXGeneral', 'DejaVu Serif', serif; text-anchor: end" x="29.43625" y="169.186906" transform="rotate(-0 29.43625 169.186906)">0.0</text>
     </g>
    </g>
    <g id="ytick_2">
     <g id="line2d_8">
      <path d="M 36.43625 140.1594 
L 344.16 140.1594 
" clip-path="url(#p1ac833e138)" style="fill: none; stroke: #b0b0b0; stroke-opacity: 0.25; stroke-width: 0.4; stroke-linecap: square"/>
     </g>
     <g id="line2d_9">
      <g>
       <use xlink:href="#mbb9144e6e7" x="36.43625" y="140.1594" style="stroke: #000000; stroke-width: 0.8"/>
      </g>
     </g>
     <g id="text_7">
      <text style="font-size: 7.5px; font-family: 'Times New Roman', 'Nimbus Roman', 'Liberation Serif', 'STIXGeneral', 'DejaVu Serif', serif; text-anchor: end" x="29.43625" y="142.763306" transform="rotate(-0 29.43625 142.763306)">0.2</text>
     </g>
    </g>
    <g id="ytick_3">
     <g id="line2d_10">
      <path d="M 36.43625 113.7358 
L 344.16 113.7358 
" clip-path="url(#p1ac833e138)" style="fill: none; stroke: #b0b0b0; stroke-opacity: 0.25; stroke-width: 0.4; stroke-linecap: square"/>
     </g>
     <g id="line2d_11">
      <g>
       <use xlink:href="#mbb9144e6e7" x="36.43625" y="113.7358" style="stroke: #000000; stroke-width: 0.8"/>
      </g>
     </g>
     <g id="text_8">
      <text style="font-size: 7.5px; font-family: 'Times New Roman', 'Nimbus Roman', 'Liberation Serif', 'STIXGeneral', 'DejaVu Serif', serif; text-anchor: end" x="29.43625" y="116.339706" transform="rotate(-0 29.43625 116.339706)">0.4</text>
     </g>
    </g>
    <g id="ytick_4">
     <g id="line2d_12">
      <path d="M 36.43625 87.3122 
L 344.16 87.3122 
" clip-path="url(#p1ac833e138)" style="fill: none; stroke: #b0b0b0; stroke-opacity: 0.25; stroke-width: 0.4; stroke-linecap: square"/>
     </g>
     <g id="line2d_13">
      <g>
       <use xlink:href="#mbb9144e6e7" x="36.43625" y="87.3122" style="stroke: #000000; stroke-width: 0.8"/>
      </g>
     </g>
     <g id="text_9">
      <text style="font-size: 7.5px; font-family: 'Times New Roman', 'Nimbus Roman', 'Liberation Serif', 'STIXGeneral', 'DejaVu Serif', serif; text-anchor: end" x="29.43625" y="89.916106" transform="rotate(-0 29.43625 89.916106)">0.6</text>
     </g>
    </g>
    <g id="ytick_5">
     <g id="line2d_14">
      <path d="M 36.43625 60.8886 
L 344.16 60.8886 
" clip-path="url(#p1ac833e138)" style="fill: none; stroke: #b0b0b0; stroke-opacity: 0.25; stroke-width: 0.4; stroke-linecap: square"/>
     </g>
     <g id="line2d_15">
      <g>
       <use xlink:href="#mbb9144e6e7" x="36.43625" y="60.8886" style="stroke: #000000; stroke-width: 0.8"/>
      </g>
     </g>
     <g id="text_10">
      <text style="font-size: 7.5px; font-family: 'Times New Roman', 'Nimbus Roman', 'Liberation Serif', 'STIXGeneral', 'DejaVu Serif', serif; text-anchor: end" x="29.43625" y="63.492506" transform="rotate(-0 29.43625 63.492506)">0.8</text>
     </g>
    </g>
    <g id="ytick_6">
     <g id="line2d_16">
      <path d="M 36.43625 34.465 
L 344.16 34.465 
" clip-path="url(#p1ac833e138)" style="fill: none; stroke: #b0b0b0; stroke-opacity: 0.25; stroke-width: 0.4; stroke-linecap: square"/>
     </g>
     <g id="line2d_17">
      <g>
       <use xlink:href="#mbb9144e6e7" x="36.43625" y="34.465" style="stroke: #000000; stroke-width: 0.8"/>
      </g>
     </g>
     <g id="text_11">
      <text style="font-size: 7.5px; font-family: 'Times New Roman', 'Nimbus Roman', 'Liberation Serif', 'STIXGeneral', 'DejaVu Serif', serif; text-anchor: end" x="29.43625" y="37.068906" transform="rotate(-0 29.43625 37.068906)">1.0</text>
     </g>
    </g>
    <g id="text_12">
     <text style="font-size: 8px; font-family: 'Times New Roman', 'Nimbus Roman', 'Liberation Serif', 'STIXGeneral', 'DejaVu Serif', serif; text-anchor: middle" x="14.335" y="100.524" transform="rotate(-90 14.335 100.524)">accuracy (Rician, test)</text>
    </g>
   </g>
   <g id="patch_3">
    <path d="M 36.43625 166.583 
L 36.43625 34.465 
" style="fill: none; stroke: #000000; stroke-width: 0.6; stroke-linejoin: miter; stroke-linecap: square"/>
   </g>
   <g id="patch_4">
    <path d="M 36.43625 166.583 
L 344.16 166.583 
" style="fill: none; stroke: #000000; stroke-width: 0.6; stroke-linejoin: miter; stroke-linecap: square"/>
   </g>
   <g id="patch_5">
    <path d="M 50.423693 166.583 
L 61.590139 166.583 
L 61.590139 77.006996 
L 50.423693 77.006996 
z
" clip-path="url(#p1ac833e138)" style="fill: url(#h5d449cd1af); stroke: #ffffff; stroke-width: 0.3; stroke-linejoin: miter"/>
   </g>
   <g id="patch_6">
    <path d="M 61.590139 166.583 
L 72.756586 166.583 
L 72.756586 66.041202 
L 61.590139 66.041202 
z
" clip-path="url(#p1ac833e138)" style="fill: #ffb454"/>
   </g>
   <g id="patch_7">
    <path d="M 72.756586 166.583 
L 83.923032 166.583 
L 83.923032 71.299498 
L 72.756586 71.299498 
z
" clip-path="url(#p1ac833e138)" style="fill: #e07b39"/>
   </g>
   <g id="patch_8">
    <path d="M 83.923032 166.583 
L 95.089478 166.583 
L 95.089478 70.876721 
L 83.923032 70.876721 
z
" clip-path="url(#p1ac833e138)" style="fill: #9c5f28"/>
   </g>
   <g id="text_13">
    <!-- $\to$ image -->
    <g style="fill: #8a6d3b" transform="translate(60.049086 62.041202)">
     <text>
      <tspan x="0.938599" y="-0.140625" style="font-size: 6.5px; font-family: 'STIXGeneral'; fill: #8a6d3b">→</tspan>
      <tspan x="7.896194" y="-0.140625" style="font-size: 6.5px; font-family: 'Times New Roman'; fill: #8a6d3b"> </tspan>
      <tspan x="9.521194" y="-0.140625" style="font-size: 6.5px; font-family: 'Times New Roman'; fill: #8a6d3b">i</tspan>
      <tspan x="11.327103" y="-0.140625" style="font-size: 6.5px; font-family: 'Times New Roman'; fill: #8a6d3b">m</tspan>
      <tspan x="16.383011" y="-0.140625" style="font-size: 6.5px; font-family: 'Times New Roman'; fill: #8a6d3b">a</tspan>
      <tspan x="19.268021" y="-0.140625" style="font-size: 6.5px; font-family: 'Times New Roman'; fill: #8a6d3b">g</tspan>
      <tspan x="22.518021" y="-0.140625" style="font-size: 6.5px; font-family: 'Times New Roman'; fill: #8a6d3b">e</tspan>
     </text>
    </g>
   </g>
   <g id="patch_9">
    <path d="M 109.194463 166.583 
L 120.360909 166.583 
L 120.360909 107.103476 
L 109.194463 107.103476 
z
" clip-path="url(#p1ac833e138)" style="fill: url(#h5d449cd1af); stroke: #ffffff; stroke-width: 0.3; stroke-linejoin: miter"/>
   </g>
   <g id="patch_10">
    <path d="M 120.360909 166.583 
L 131.527355 166.583 
L 131.527355 129.537113 
L 120.360909 129.537113 
z
" clip-path="url(#p1ac833e138)" style="fill: #ffb454"/>
   </g>
   <g id="patch_11">
    <path d="M 131.527355 166.583 
L 142.693802 166.583 
L 142.693802 117.03875 
L 131.527355 117.03875 
z
" clip-path="url(#p1ac833e138)" style="fill: #e07b39"/>
   </g>
   <g id="patch_12">
    <path d="M 142.693802 166.583 
L 153.860248 166.583 
L 153.860248 114.924862 
L 142.693802 114.924862 
z
" clip-path="url(#p1ac833e138)" style="fill: #9c5f28"/>
   </g>
   <g id="text_14">
    <!-- $\to$ token -->
    <g style="fill: #1f7a54" transform="translate(119.534855 103.103476)">
     <text>
      <tspan x="0.938599" y="-0.140625" style="font-size: 6.5px; font-family: 'STIXGeneral'; fill: #1f7a54">→</tspan>
      <tspan x="7.896194" y="-0.140625" style="font-size: 6.5px; font-family: 'Times New Roman'; fill: #1f7a54"> </tspan>
      <tspan x="9.521194" y="-0.140625" style="font-size: 6.5px; font-family: 'Times New Roman'; fill: #1f7a54">t</tspan>
      <tspan x="11.327103" y="-0.140625" style="font-size: 6.5px; font-family: 'Times New Roman'; fill: #1f7a54">o</tspan>
      <tspan x="14.577103" y="-0.140625" style="font-size: 6.5px; font-family: 'Times New Roman'; fill: #1f7a54">k</tspan>
      <tspan x="17.827103" y="-0.140625" style="font-size: 6.5px; font-family: 'Times New Roman'; fill: #1f7a54">e</tspan>
      <tspan x="20.712112" y="-0.140625" style="font-size: 6.5px; font-family: 'Times New Roman'; fill: #1f7a54">n</tspan>
     </text>
    </g>
   </g>
   <g id="patch_13">
    <path d="M 167.965233 166.583 
L 179.131679 166.583 
L 179.131679 54.784748 
L 167.965233 54.784748 
z
" clip-path="url(#p1ac833e138)" style="fill: url(#h5d449cd1af); stroke: #ffffff; stroke-width: 0.3; stroke-linejoin: miter"/>
   </g>
   <g id="patch_14">
    <path d="M 179.131679 166.583 
L 190.298125 166.583 
L 190.298125 72.792432 
L 179.131679 72.792432 
z
" clip-path="url(#p1ac833e138)" style="fill: #ffb454"/>
   </g>
   <g id="patch_15">
    <path d="M 190.298125 166.583 
L 201.464571 166.583 
L 201.464571 62.619346 
L 190.298125 62.619346 
z
" clip-path="url(#p1ac833e138)" style="fill: #e07b39"/>
   </g>
   <g id="patch_16">
    <path d="M 201.464571 166.583 
L 212.631017 166.583 
L 212.631017 87.60286 
L 201.464571 87.60286 
z
" clip-path="url(#p1ac833e138)" style="fill: #9c5f28"/>
   </g>
   <g id="text_15">
    <!-- $\to$ token -->
    <g style="fill: #1f7a54" transform="translate(178.305625 50.784748)">
     <text>
      <tspan x="0.938599" y="-0.140625" style="font-size: 6.5px; font-family: 'STIXGeneral'; fill: #1f7a54">→</tspan>
      <tspan x="7.896194" y="-0.140625" style="font-size: 6.5px; font-family: 'Times New Roman'; fill: #1f7a54"> </tspan>
      <tspan x="9.521194" y="-0.140625" style="font-size: 6.5px; font-family: 'Times New Roman'; fill: #1f7a54">t</tspan>
      <tspan x="11.327103" y="-0.140625" style="font-size: 6.5px; font-family: 'Times New Roman'; fill: #1f7a54">o</tspan>
      <tspan x="14.577103" y="-0.140625" style="font-size: 6.5px; font-family: 'Times New Roman'; fill: #1f7a54">k</tspan>
      <tspan x="17.827103" y="-0.140625" style="font-size: 6.5px; font-family: 'Times New Roman'; fill: #1f7a54">e</tspan>
      <tspan x="20.712112" y="-0.140625" style="font-size: 6.5px; font-family: 'Times New Roman'; fill: #1f7a54">n</tspan>
     </text>
    </g>
   </g>
   <g id="patch_17">
    <path d="M 226.736002 166.583 
L 237.902448 166.583 
L 237.902448 78.922707 
L 226.736002 78.922707 
z
" clip-path="url(#p1ac833e138)" style="fill: url(#h5d449cd1af); stroke: #ffffff; stroke-width: 0.3; stroke-linejoin: miter"/>
   </g>
   <g id="patch_18">
    <path d="M 237.902448 166.583 
L 249.068895 166.583 
L 249.068895 92.689403 
L 237.902448 92.689403 
z
" clip-path="url(#p1ac833e138)" style="fill: #ffb454"/>
   </g>
   <g id="patch_19">
    <path d="M 249.068895 166.583 
L 260.235341 166.583 
L 260.235341 93.534958 
L 249.068895 93.534958 
z
" clip-path="url(#p1ac833e138)" style="fill: #e07b39"/>
   </g>
   <g id="patch_20">
    <path d="M 260.235341 166.583 
L 271.401787 166.583 
L 271.401787 96.719002 
L 260.235341 96.719002 
z
" clip-path="url(#p1ac833e138)" style="fill: #9c5f28"/>
   </g>
   <g id="text_16">
    <!-- $\to$ token -->
    <g style="fill: #1f7a54" transform="translate(237.076395 74.922707)">
     <text>
      <tspan x="0.938599" y="-0.140625" style="font-size: 6.5px; font-family: 'STIXGeneral'; fill: #1f7a54">→</tspan>
      <tspan x="7.896194" y="-0.140625" style="font-size: 6.5px; font-family: 'Times New Roman'; fill: #1f7a54"> </tspan>
      <tspan x="9.521194" y="-0.140625" style="font-size: 6.5px; font-family: 'Times New Roman'; fill: #1f7a54">t</tspan>
      <tspan x="11.327103" y="-0.140625" style="font-size: 6.5px; font-family: 'Times New Roman'; fill: #1f7a54">o</tspan>
      <tspan x="14.577103" y="-0.140625" style="font-size: 6.5px; font-family: 'Times New Roman'; fill: #1f7a54">k</tspan>
      <tspan x="17.827103" y="-0.140625" style="font-size: 6.5px; font-family: 'Times New Roman'; fill: #1f7a54">e</tspan>
      <tspan x="20.712112" y="-0.140625" style="font-size: 6.5px; font-family: 'Times New Roman'; fill: #1f7a54">n</tspan>
     </text>
    </g>
   </g>
   <g id="patch_21">
    <path d="M 285.506772 166.583 
L 296.673218 166.583 
L 296.673218 87.814248 
L 285.506772 87.814248 
z
" clip-path="url(#p1ac833e138)" style="fill: url(#h5d449cd1af); stroke: #ffffff; stroke-width: 0.3; stroke-linejoin: miter"/>
   </g>
   <g id="patch_22">
    <path d="M 296.673218 166.583 
L 307.839664 166.583 
L 307.839664 85.911749 
L 296.673218 85.911749 
z
" clip-path="url(#p1ac833e138)" style="fill: #ffb454"/>
   </g>
   <g id="patch_23">
    <path d="M 307.839664 166.583 
L 319.006111 166.583 
L 319.006111 91.632459 
L 307.839664 91.632459 
z
" clip-path="url(#p1ac833e138)" style="fill: #e07b39"/>
   </g>
   <g id="patch_24">
    <path d="M 319.006111 166.583 
L 330.172557 166.583 
L 330.172557 84.432028 
L 319.006111 84.432028 
z
" clip-path="url(#p1ac833e138)" style="fill: #9c5f28"/>
   </g>
   <g id="text_17">
    <text style="font-size: 6.5px; font-family: 'Times New Roman', 'Nimbus Roman', 'Liberation Serif', 'STIXGeneral', 'DejaVu Serif', serif; text-anchor: middle; fill: #595959" x="307.839664" y="80.432028" transform="rotate(-0 307.839664 80.432028)">boundary</text>
   </g>
   <g id="legend_1">
    <g id="patch_25">
     <path d="M 70.505703 18.144063 
L 78.905703 18.144063 
L 78.905703 13.244063 
L 70.505703 13.244063 
z
" style="fill: url(#h5d449cd1af); stroke: #ffffff; stroke-linejoin: miter"/>
    </g>
    <g id="text_18">
     <text style="font-size: 7px; font-family: 'Times New Roman', 'Nimbus Roman', 'Liberation Serif', 'STIXGeneral', 'DejaVu Serif', serif; text-anchor: start" x="84.505703" y="18.144063" transform="rotate(-0 84.505703 18.144063)">fixed token (VLM-agnostic symbolic decoder)</text>
    </g>
    <g id="patch_26">
     <path d="M 70.505703 26.654531 
L 78.905703 26.654531 
L 78.905703 21.754531 
L 70.505703 21.754531 
z
" style="fill: #ffb454"/>
    </g>
    <g id="text_19">
     <text style="font-size: 7px; font-family: 'Times New Roman', 'Nimbus Roman', 'Liberation Serif', 'STIXGeneral', 'DejaVu Serif', serif; text-anchor: start" x="84.505703" y="26.654531" transform="rotate(-0 84.505703 26.654531)">image, Qwen2-VL-2B</text>
    </g>
    <g id="patch_27">
     <path d="M 221.435547 18.144063 
L 229.835547 18.144063 
L 229.835547 13.244063 
L 221.435547 13.244063 
z
" style="fill: #e07b39"/>
    </g>
    <g id="text_20">
     <text style="font-size: 7px; font-family: 'Times New Roman', 'Nimbus Roman', 'Liberation Serif', 'STIXGeneral', 'DejaVu Serif', serif; text-anchor: start" x="235.435547" y="18.144063" transform="rotate(-0 235.435547 18.144063)">image, Qwen2.5-VL-3B</text>
    </g>
    <g id="patch_28">
     <path d="M 221.435547 26.654531 
L 229.835547 26.654531 
L 229.835547 21.754531 
L 221.435547 21.754531 
z
" style="fill: #9c5f28"/>
    </g>
    <g id="text_21">
     <text style="font-size: 7px; font-family: 'Times New Roman', 'Nimbus Roman', 'Liberation Serif', 'STIXGeneral', 'DejaVu Serif', serif; text-anchor: start" x="235.435547" y="26.654531" transform="rotate(-0 235.435547 26.654531)">image, SmolVLM-Instruct</text>
    </g>
   </g>
  </g>
 </g>
 <defs>
  <clipPath id="p1ac833e138">
   <rect x="36.43625" y="34.465" width="307.72375" height="132.118"/>
  </clipPath>
 </defs>
 <defs>
  <pattern id="h5d449cd1af" patternUnits="userSpaceOnUse" x="0" y="0" width="72" height="72">
   <rect x="0" y="0" width="73" height="73" fill="#5a6b7c"/>
   <path d="M -36 36 
L 36 -36 
M -32 40 
L 40 -32 
M -28 44 
L 44 -28 
M -24 48 
L 48 -24 
M -20 52 
L 52 -20 
M -16 56 
L 56 -16 
M -12 60 
L 60 -12 
M -8 64 
L 64 -8 
M -4 68 
L 68 -4 
M 0 72 
L 72 0 
M 4 76 
L 76 4 
M 8 80 
L 80 8 
M 12 84 
L 84 12 
M 16 88 
L 88 16 
M 20 92 
L 92 20 
M 24 96 
L 96 24 
M 28 100 
L 100 28 
M 32 104 
L 104 32 
M 36 108 
L 108 36 
" style="fill: #ffffff; stroke: #ffffff; stroke-width: 0.6; stroke-linecap: butt; stroke-linejoin: miter"/>
  </pattern>
 </defs>
</svg>
